<svg width="181" height="53" viewBox="0 0 181 53" fill="none" xmlns="http://www.w3.org/2000/svg">
<rect width="181" height="53" rx="6" fill="black"/>
<path d="M54.19 18V8.13H57.592C58.6653 8.13 59.5753 8.32133 60.322 8.704C61.078 9.07733 61.652 9.63267 62.044 10.37C62.436 11.098 62.632 11.994 62.632 13.058C62.632 14.122 62.436 15.0227 62.044 15.76C61.652 16.488 61.078 17.0433 60.322 17.426C59.5753 17.8087 58.6653 18 57.592 18H54.19ZM55.492 16.894H57.508C58.768 16.894 59.7107 16.5767 60.336 15.942C60.9613 15.298 61.274 14.3367 61.274 13.058C61.274 11.7793 60.9567 10.8227 60.322 10.188C59.6967 9.55333 58.7587 9.236 57.508 9.236H55.492V16.894ZM67.379 18.126C66.707 18.126 66.1237 17.9813 65.629 17.692C65.1343 17.4027 64.7517 16.992 64.481 16.46C64.2103 15.928 64.075 15.3027 64.075 14.584C64.075 13.8653 64.2103 13.2447 64.481 12.722C64.7517 12.19 65.1343 11.7793 65.629 11.49C66.1237 11.2007 66.707 11.056 67.379 11.056C68.051 11.056 68.6343 11.2007 69.129 11.49C69.6237 11.7793 70.0063 12.19 70.277 12.722C70.5477 13.2447 70.683 13.8653 70.683 14.584C70.683 15.3027 70.5477 15.928 70.277 16.46C70.0063 16.992 69.6237 17.4027 69.129 17.692C68.6343 17.9813 68.051 18.126 67.379 18.126ZM67.379 17.118C67.995 17.118 68.485 16.9033 68.849 16.474C69.213 16.0353 69.395 15.4053 69.395 14.584C69.395 13.7627 69.213 13.1373 68.849 12.708C68.485 12.2787 67.995 12.064 67.379 12.064C66.7723 12.064 66.2823 12.2787 65.909 12.708C65.545 13.1373 65.363 13.7627 65.363 14.584C65.363 15.4053 65.545 16.0353 65.909 16.474C66.2823 16.9033 66.7723 17.118 67.379 17.118ZM74.0396 18L71.4776 11.182H72.7936L74.8376 16.978H74.5016L76.6156 11.182H77.6376L79.7096 16.978H79.3876L81.4596 11.182H82.7056L80.1436 18H78.9536L76.7696 12.036H77.4136L75.2296 18H74.0396ZM84.0181 18V11.182H85.2641V12.666H85.1101C85.3061 12.134 85.6234 11.7327 86.0621 11.462C86.5101 11.1913 87.0188 11.056 87.5881 11.056C88.1388 11.056 88.5914 11.154 88.9461 11.35C89.3008 11.546 89.5668 11.8493 89.7441 12.26C89.9214 12.6613 90.0101 13.1653 90.0101 13.772V18H88.7361V13.842C88.7361 13.4407 88.6848 13.1093 88.5821 12.848C88.4794 12.5867 88.3161 12.3953 88.0921 12.274C87.8774 12.1527 87.6021 12.092 87.2661 12.092C86.8741 12.092 86.5288 12.176 86.2301 12.344C85.9314 12.512 85.6981 12.75 85.5301 13.058C85.3714 13.366 85.2921 13.7253 85.2921 14.136V18H84.0181ZM94.1998 18.126C93.4718 18.126 92.9258 17.9207 92.5618 17.51C92.2071 17.09 92.0298 16.488 92.0298 15.704V8.13H93.3038V15.606C93.3038 15.9233 93.3458 16.194 93.4298 16.418C93.5231 16.6327 93.6538 16.7913 93.8218 16.894C93.9991 16.9967 94.2185 17.048 94.4798 17.048C94.5825 17.048 94.6851 17.0433 94.7878 17.034C94.8998 17.0247 95.0025 17.006 95.0958 16.978L95.0678 18.014C94.9185 18.0513 94.7691 18.0793 94.6198 18.098C94.4798 18.1167 94.3398 18.126 94.1998 18.126ZM99.0704 18.126C98.3984 18.126 97.8151 17.9813 97.3204 17.692C96.8257 17.4027 96.4431 16.992 96.1724 16.46C95.9017 15.928 95.7664 15.3027 95.7664 14.584C95.7664 13.8653 95.9017 13.2447 96.1724 12.722C96.4431 12.19 96.8257 11.7793 97.3204 11.49C97.8151 11.2007 98.3984 11.056 99.0704 11.056C99.7424 11.056 100.326 11.2007 100.82 11.49C101.315 11.7793 101.698 12.19 101.968 12.722C102.239 13.2447 102.374 13.8653 102.374 14.584C102.374 15.3027 102.239 15.928 101.968 16.46C101.698 16.992 101.315 17.4027 100.82 17.692C100.326 17.9813 99.7424 18.126 99.0704 18.126ZM99.0704 17.118C99.6864 17.118 100.176 16.9033 100.54 16.474C100.904 16.0353 101.086 15.4053 101.086 14.584C101.086 13.7627 100.904 13.1373 100.54 12.708C100.176 12.2787 99.6864 12.064 99.0704 12.064C98.4637 12.064 97.9737 12.2787 97.6004 12.708C97.2364 13.1373 97.0544 13.7627 97.0544 14.584C97.0544 15.4053 97.2364 16.0353 97.6004 16.474C97.9737 16.9033 98.4637 17.118 99.0704 17.118ZM106.176 18.126C105.71 18.126 105.285 18.0327 104.902 17.846C104.529 17.6593 104.235 17.4073 104.02 17.09C103.815 16.7727 103.712 16.418 103.712 16.026C103.712 15.522 103.838 15.1253 104.09 14.836C104.342 14.5467 104.767 14.3413 105.364 14.22C105.962 14.0893 106.764 14.024 107.772 14.024H108.43V14.836H107.8C107.259 14.836 106.806 14.8547 106.442 14.892C106.078 14.9293 105.789 14.99 105.574 15.074C105.36 15.158 105.206 15.2747 105.112 15.424C105.019 15.564 104.972 15.7413 104.972 15.956C104.972 16.32 105.098 16.6187 105.35 16.852C105.612 17.0853 105.966 17.202 106.414 17.202C106.769 17.202 107.082 17.118 107.352 16.95C107.623 16.7727 107.838 16.5393 107.996 16.25C108.155 15.9513 108.234 15.6107 108.234 15.228V13.618C108.234 13.0673 108.122 12.6707 107.898 12.428C107.674 12.176 107.296 12.05 106.764 12.05C106.372 12.05 105.98 12.1107 105.588 12.232C105.206 12.3533 104.809 12.54 104.398 12.792L103.992 11.882C104.235 11.714 104.51 11.5693 104.818 11.448C105.136 11.3173 105.462 11.2193 105.798 11.154C106.144 11.0887 106.475 11.056 106.792 11.056C107.399 11.056 107.898 11.154 108.29 11.35C108.682 11.5367 108.976 11.8307 109.172 12.232C109.368 12.624 109.466 13.128 109.466 13.744V18H108.262V16.446H108.388C108.314 16.7913 108.174 17.09 107.968 17.342C107.763 17.594 107.506 17.79 107.198 17.93C106.9 18.0607 106.559 18.126 106.176 18.126ZM114.075 18.126C113.478 18.126 112.951 17.986 112.493 17.706C112.045 17.4167 111.695 17.006 111.443 16.474C111.191 15.9327 111.065 15.3027 111.065 14.584C111.065 13.856 111.187 13.2307 111.429 12.708C111.681 12.176 112.031 11.77 112.479 11.49C112.937 11.2007 113.469 11.056 114.075 11.056C114.682 11.056 115.205 11.21 115.643 11.518C116.082 11.8167 116.376 12.218 116.525 12.722H116.371V8.13H117.645V18H116.385V16.418H116.525C116.385 16.9407 116.091 17.356 115.643 17.664C115.205 17.972 114.682 18.126 114.075 18.126ZM114.369 17.118C114.985 17.118 115.475 16.9033 115.839 16.474C116.203 16.0353 116.385 15.4053 116.385 14.584C116.385 13.7627 116.203 13.1373 115.839 12.708C115.475 12.2787 114.985 12.064 114.369 12.064C113.763 12.064 113.273 12.2787 112.899 12.708C112.535 13.1373 112.353 13.7627 112.353 14.584C112.353 15.4053 112.535 16.0353 112.899 16.474C113.273 16.9033 113.763 17.118 114.369 17.118ZM126.223 18.126C125.551 18.126 124.967 17.9813 124.473 17.692C123.978 17.4027 123.595 16.992 123.325 16.46C123.054 15.928 122.919 15.3027 122.919 14.584C122.919 13.8653 123.054 13.2447 123.325 12.722C123.595 12.19 123.978 11.7793 124.473 11.49C124.967 11.2007 125.551 11.056 126.223 11.056C126.895 11.056 127.478 11.2007 127.973 11.49C128.467 11.7793 128.85 12.19 129.121 12.722C129.391 13.2447 129.527 13.8653 129.527 14.584C129.527 15.3027 129.391 15.928 129.121 16.46C128.85 16.992 128.467 17.4027 127.973 17.692C127.478 17.9813 126.895 18.126 126.223 18.126ZM126.223 17.118C126.839 17.118 127.329 16.9033 127.693 16.474C128.057 16.0353 128.239 15.4053 128.239 14.584C128.239 13.7627 128.057 13.1373 127.693 12.708C127.329 12.2787 126.839 12.064 126.223 12.064C125.616 12.064 125.126 12.2787 124.753 12.708C124.389 13.1373 124.207 13.7627 124.207 14.584C124.207 15.4053 124.389 16.0353 124.753 16.474C125.126 16.9033 125.616 17.118 126.223 17.118ZM131.159 18V11.182H132.405V12.666H132.251C132.447 12.134 132.764 11.7327 133.203 11.462C133.651 11.1913 134.159 11.056 134.729 11.056C135.279 11.056 135.732 11.154 136.087 11.35C136.441 11.546 136.707 11.8493 136.885 12.26C137.062 12.6613 137.151 13.1653 137.151 13.772V18H135.877V13.842C135.877 13.4407 135.825 13.1093 135.723 12.848C135.62 12.5867 135.457 12.3953 135.233 12.274C135.018 12.1527 134.743 12.092 134.407 12.092C134.015 12.092 133.669 12.176 133.371 12.344C133.072 12.512 132.839 12.75 132.671 13.058C132.512 13.366 132.433 13.7253 132.433 14.136V18H131.159ZM145.635 18.126C144.804 18.126 144.184 17.9113 143.773 17.482C143.362 17.0433 143.157 16.418 143.157 15.606V12.162H141.827V11.182H143.157V9.11H144.431V11.182H146.573V12.162H144.431V15.494C144.431 16.0073 144.538 16.3947 144.753 16.656C144.968 16.9173 145.322 17.048 145.817 17.048C145.966 17.048 146.111 17.034 146.251 17.006C146.4 16.9687 146.54 16.9313 146.671 16.894L146.881 17.846C146.75 17.93 146.564 17.9953 146.321 18.042C146.088 18.098 145.859 18.126 145.635 18.126ZM147.825 18V8.13H149.099V12.666H148.917C149.113 12.134 149.43 11.7327 149.869 11.462C150.317 11.1913 150.825 11.056 151.395 11.056C151.945 11.056 152.398 11.1587 152.753 11.364C153.107 11.56 153.373 11.8587 153.551 12.26C153.728 12.6613 153.817 13.1653 153.817 13.772V18H152.543V13.842C152.543 13.4407 152.491 13.1093 152.389 12.848C152.286 12.5867 152.123 12.3953 151.899 12.274C151.684 12.1527 151.409 12.092 151.073 12.092C150.681 12.092 150.335 12.176 150.037 12.344C149.738 12.512 149.505 12.75 149.337 13.058C149.178 13.366 149.099 13.7253 149.099 14.136V18H147.825ZM158.986 18.126C158.249 18.126 157.614 17.986 157.082 17.706C156.56 17.4167 156.154 17.0107 155.864 16.488C155.575 15.956 155.43 15.3307 155.43 14.612C155.43 13.9027 155.57 13.282 155.85 12.75C156.14 12.218 156.532 11.8027 157.026 11.504C157.53 11.2053 158.104 11.056 158.748 11.056C159.374 11.056 159.906 11.1913 160.344 11.462C160.792 11.7327 161.133 12.12 161.366 12.624C161.609 13.1187 161.73 13.716 161.73 14.416V14.878H156.424V14.066H160.89L160.652 14.262C160.652 13.534 160.494 12.974 160.176 12.582C159.859 12.1807 159.392 11.98 158.776 11.98C158.328 11.98 157.946 12.0873 157.628 12.302C157.311 12.5073 157.068 12.8013 156.9 13.184C156.732 13.5573 156.648 13.9913 156.648 14.486V14.57C156.648 15.13 156.737 15.6013 156.914 15.984C157.101 16.3573 157.367 16.642 157.712 16.838C158.058 17.0247 158.482 17.118 158.986 17.118C159.388 17.118 159.775 17.0573 160.148 16.936C160.531 16.8053 160.89 16.6047 161.226 16.334L161.618 17.216C161.31 17.496 160.914 17.72 160.428 17.888C159.952 18.0467 159.472 18.126 158.986 18.126Z" fill="white"/>
<path d="M46.026 44L54.32 25.67H57.05L65.344 44H61.964L59.754 38.852L61.158 39.762H50.186L51.59 38.852L49.406 44H46.026ZM55.646 29.284L52.006 37.942L51.33 37.11H60.014L59.364 37.942L55.698 29.284H55.646ZM67.0377 48.68V31.286H70.2097V33.964H69.9497C70.2097 33.08 70.7383 32.3693 71.5357 31.832C72.3503 31.2947 73.295 31.026 74.3697 31.026C75.479 31.026 76.4497 31.2947 77.2817 31.832C78.131 32.3693 78.7897 33.132 79.2577 34.12C79.7257 35.0907 79.9597 36.2607 79.9597 37.63C79.9597 38.982 79.7257 40.1607 79.2577 41.166C78.7897 42.154 78.1397 42.9167 77.3077 43.454C76.4757 43.9913 75.4963 44.26 74.3697 44.26C73.3123 44.26 72.385 44 71.5877 43.48C70.7903 42.9427 70.253 42.2493 69.9757 41.4H70.2877V48.68H67.0377ZM73.4597 41.79C74.4303 41.79 75.2103 41.4433 75.7997 40.75C76.389 40.0393 76.6837 38.9993 76.6837 37.63C76.6837 36.2433 76.389 35.212 75.7997 34.536C75.2103 33.8427 74.4303 33.496 73.4597 33.496C72.489 33.496 71.709 33.8427 71.1197 34.536C70.5303 35.212 70.2357 36.2433 70.2357 37.63C70.2357 38.9993 70.5303 40.0393 71.1197 40.75C71.709 41.4433 72.489 41.79 73.4597 41.79ZM82.6275 48.68V31.286H85.7995V33.964H85.5395C85.7995 33.08 86.3282 32.3693 87.1255 31.832C87.9402 31.2947 88.8848 31.026 89.9595 31.026C91.0688 31.026 92.0395 31.2947 92.8715 31.832C93.7208 32.3693 94.3795 33.132 94.8475 34.12C95.3155 35.0907 95.5495 36.2607 95.5495 37.63C95.5495 38.982 95.3155 40.1607 94.8475 41.166C94.3795 42.154 93.7295 42.9167 92.8975 43.454C92.0655 43.9913 91.0862 44.26 89.9595 44.26C88.9022 44.26 87.9748 44 87.1775 43.48C86.3802 42.9427 85.8428 42.2493 85.5655 41.4H85.8775V48.68H82.6275ZM89.0495 41.79C90.0202 41.79 90.8002 41.4433 91.3895 40.75C91.9788 40.0393 92.2735 38.9993 92.2735 37.63C92.2735 36.2433 91.9788 35.212 91.3895 34.536C90.8002 33.8427 90.0202 33.496 89.0495 33.496C88.0788 33.496 87.2988 33.8427 86.7095 34.536C86.1202 35.212 85.8255 36.2433 85.8255 37.63C85.8255 38.9993 86.1202 40.0393 86.7095 40.75C87.2988 41.4433 88.0788 41.79 89.0495 41.79ZM111.855 44.26C110.902 44.26 109.983 44.1733 109.099 44C108.232 43.844 107.426 43.61 106.681 43.298C105.953 42.986 105.303 42.6133 104.731 42.18L105.745 39.554C106.317 39.9527 106.915 40.2993 107.539 40.594C108.18 40.8713 108.856 41.088 109.567 41.244C110.295 41.3827 111.058 41.452 111.855 41.452C113.224 41.452 114.221 41.2267 114.845 40.776C115.469 40.308 115.781 39.71 115.781 38.982C115.781 38.5833 115.686 38.2453 115.495 37.968C115.304 37.6733 114.992 37.422 114.559 37.214C114.126 37.006 113.554 36.8327 112.843 36.694L109.983 36.096C108.336 35.7493 107.106 35.1687 106.291 34.354C105.494 33.522 105.095 32.43 105.095 31.078C105.095 29.934 105.398 28.9373 106.005 28.088C106.612 27.2387 107.452 26.58 108.527 26.112C109.602 25.644 110.841 25.41 112.245 25.41C113.077 25.41 113.874 25.4967 114.637 25.67C115.417 25.826 116.128 26.0687 116.769 26.398C117.428 26.71 118 27.0913 118.485 27.542L117.471 30.038C116.743 29.4313 115.946 28.9807 115.079 28.686C114.212 28.374 113.259 28.218 112.219 28.218C111.422 28.218 110.737 28.3307 110.165 28.556C109.593 28.7813 109.151 29.102 108.839 29.518C108.544 29.9167 108.397 30.3933 108.397 30.948C108.397 31.572 108.605 32.0747 109.021 32.456C109.437 32.82 110.148 33.106 111.153 33.314L113.987 33.912C115.703 34.276 116.977 34.848 117.809 35.628C118.658 36.408 119.083 37.448 119.083 38.748C119.083 39.84 118.788 40.802 118.199 41.634C117.61 42.466 116.769 43.116 115.677 43.584C114.602 44.0347 113.328 44.26 111.855 44.26ZM127.325 44.26C125.626 44.26 124.361 43.8353 123.529 42.986C122.697 42.1367 122.281 40.8973 122.281 39.268V33.73H119.837V31.286H122.281V27.49H125.531V31.286H129.379V33.73H125.531V39.086C125.531 39.918 125.713 40.542 126.077 40.958C126.441 41.374 127.03 41.582 127.845 41.582C128.087 41.582 128.339 41.556 128.599 41.504C128.859 41.4347 129.127 41.3653 129.405 41.296L129.899 43.688C129.587 43.8613 129.188 44 128.703 44.104C128.235 44.208 127.775 44.26 127.325 44.26ZM137.15 44.26C135.833 44.26 134.689 43.9913 133.718 43.454C132.747 42.9167 131.993 42.154 131.456 41.166C130.919 40.1607 130.65 38.982 130.65 37.63C130.65 36.278 130.919 35.108 131.456 34.12C131.993 33.132 132.747 32.3693 133.718 31.832C134.689 31.2947 135.833 31.026 137.15 31.026C138.467 31.026 139.611 31.2947 140.582 31.832C141.553 32.3693 142.307 33.132 142.844 34.12C143.381 35.108 143.65 36.278 143.65 37.63C143.65 38.982 143.381 40.1607 142.844 41.166C142.307 42.154 141.553 42.9167 140.582 43.454C139.611 43.9913 138.467 44.26 137.15 44.26ZM137.15 41.79C138.121 41.79 138.901 41.4433 139.49 40.75C140.079 40.0393 140.374 38.9993 140.374 37.63C140.374 36.2433 140.079 35.212 139.49 34.536C138.901 33.8427 138.121 33.496 137.15 33.496C136.179 33.496 135.399 33.8427 134.81 34.536C134.221 35.212 133.926 36.2433 133.926 37.63C133.926 38.9993 134.221 40.0393 134.81 40.75C135.399 41.4433 136.179 41.79 137.15 41.79ZM146.333 44V31.286H149.505V34.354H149.245C149.487 33.314 149.964 32.5253 150.675 31.988C151.385 31.4333 152.33 31.1127 153.509 31.026L154.497 30.948L154.705 33.704L152.833 33.886C151.775 33.99 150.978 34.3193 150.441 34.874C149.903 35.4113 149.635 36.174 149.635 37.162V44H146.333ZM162.577 44.26C161.138 44.26 159.899 43.9913 158.859 43.454C157.819 42.9167 157.013 42.154 156.441 41.166C155.886 40.178 155.609 39.008 155.609 37.656C155.609 36.3387 155.878 35.186 156.415 34.198C156.97 33.21 157.724 32.4387 158.677 31.884C159.648 31.312 160.748 31.026 161.979 31.026C163.192 31.026 164.232 31.286 165.099 31.806C165.966 32.326 166.633 33.0627 167.101 34.016C167.586 34.9693 167.829 36.1047 167.829 37.422V38.384H158.235V36.512H165.541L165.125 36.902C165.125 35.7233 164.865 34.822 164.345 34.198C163.825 33.5567 163.08 33.236 162.109 33.236C161.381 33.236 160.757 33.4093 160.237 33.756C159.734 34.0853 159.344 34.562 159.067 35.186C158.807 35.7927 158.677 36.5207 158.677 37.37V37.552C158.677 38.5053 158.824 39.294 159.119 39.918C159.414 40.542 159.856 41.01 160.445 41.322C161.034 41.634 161.762 41.79 162.629 41.79C163.34 41.79 164.05 41.686 164.761 41.478C165.472 41.2527 166.122 40.906 166.711 40.438L167.621 42.622C167.014 43.1247 166.252 43.5233 165.333 43.818C164.414 44.1127 163.496 44.26 162.577 44.26Z" fill="white"/>
<path d="M10.0046 9C11.5847 9.64278 13.0073 10.584 14.489 11.4088C20.1801 14.5786 25.8563 17.7755 31.5371 20.9632C31.6478 21.0251 31.7511 21.1002 31.858 21.1687C29.9888 23.0407 28.1205 24.9127 26.2513 26.7847C26.1856 26.8504 26.1096 26.9049 26.0383 26.964C26.0083 26.9555 25.9792 26.9461 25.9492 26.9377C25.8788 26.8598 25.8112 26.7791 25.7371 26.705C20.0319 20.9885 14.3266 15.272 8.62141 9.55645C8.53883 9.47387 8.45063 9.39693 8.36523 9.31717C8.56698 9.11823 8.8682 9.14732 9.09246 9.00094C9.39649 9 9.70052 9 10.0046 9Z" fill="#29CB5E"/>
<path d="M31.8551 32.8549C30.5161 33.6131 29.1789 34.377 27.8361 35.1295C22.1562 38.3162 16.4745 41.501 10.7908 44.682C10.5431 44.8209 10.2672 44.9082 10.0045 45.0189C9.67699 45.0189 9.34951 45.0189 9.02108 45.0189C8.83904 44.8463 8.55378 44.8894 8.37549 44.7102C14.2224 38.8501 20.0703 32.9901 25.9172 27.13C25.95 27.0972 25.9876 27.0681 26.0223 27.0371C26.0645 27.054 26.1067 27.0718 26.148 27.0887C26.2409 27.1929 26.3291 27.3017 26.4277 27.4012C28.2368 29.2197 30.046 31.0373 31.8551 32.8549Z" fill="#D83F21"/>
<path d="M31.8551 32.8552C30.046 31.0376 28.2368 29.2199 26.4286 27.4014C26.3301 27.3029 26.2419 27.194 26.1499 27.0889C26.2719 26.9482 26.4352 27.012 26.5778 27.012C30.9346 27.0073 35.2923 27.0064 39.6492 27.0045C39.6801 27.9391 39.286 28.6823 38.5015 29.1383C36.3349 30.3967 34.1419 31.6081 31.9574 32.8364C31.9283 32.8533 31.8889 32.8495 31.8551 32.8552Z" fill="#FEAA00"/>
<path d="M39.6494 27.0051C35.2926 27.0069 30.9349 27.0069 26.578 27.0126C26.4345 27.0126 26.2712 26.9488 26.1502 27.0895C26.1079 27.0726 26.0657 27.0548 26.0244 27.0379C26.0291 27.0135 26.0338 26.9891 26.0385 26.9638C26.1098 26.9047 26.1858 26.8502 26.2515 26.7845C28.1207 24.9135 29.9899 23.0414 31.8582 21.1685C32.6014 21.5785 33.3464 21.9858 34.0877 22.3996C35.5122 23.1953 36.9385 23.9882 38.3563 24.7943C39.2056 25.2785 39.6475 26.016 39.6494 27.0051Z" fill="#FED401"/>
<path d="M26.0373 26.9643C26.0327 26.9887 26.028 27.014 26.0233 27.0384C25.9886 27.0684 25.951 27.0975 25.9182 27.1304C20.0703 32.9904 14.2234 38.8505 8.37647 44.7105C7.40433 44.2151 7.00552 43.379 7.00365 42.3299C6.99802 37.8774 6.99989 33.4249 7.00271 28.9724C7.00365 28.3174 7.0271 27.6624 7.04118 27.0084C13.2344 27.0093 19.4275 27.0093 25.6207 27.0084C25.7333 27.0084 25.8581 27.045 25.9491 26.938C25.9782 26.9474 26.0083 26.9558 26.0373 26.9643Z" fill="#2C9ED8"/>
<path d="M25.9491 26.9379C25.8572 27.0449 25.7333 27.0083 25.6207 27.0083C19.4275 27.0092 13.2343 27.0083 7.04116 27.0083C7.04022 21.8304 7.03365 16.6516 7.0421 11.4737C7.04397 10.5025 7.50752 9.77999 8.36519 9.31738C8.45058 9.39714 8.53878 9.47409 8.62136 9.55666C14.3275 15.2722 20.0328 20.9887 25.7371 26.7061C25.8112 26.7793 25.8778 26.861 25.9491 26.9379Z" fill="#32BAFE"/>
</svg>
