<svg width="183" height="55" viewBox="0 0 183 55" fill="none" xmlns="http://www.w3.org/2000/svg">
<rect x="1" y="1" width="181" height="53" rx="6" fill="#13110F"/>
<rect x="0.5" y="0.5" width="182" height="54" rx="6.5" stroke="white" stroke-opacity="0.5"/>
<path d="M55.19 19V9.13H58.592C59.6653 9.13 60.5753 9.32133 61.322 9.704C62.078 10.0773 62.652 10.6327 63.044 11.37C63.436 12.098 63.632 12.994 63.632 14.058C63.632 15.122 63.436 16.0227 63.044 16.76C62.652 17.488 62.078 18.0433 61.322 18.426C60.5753 18.8087 59.6653 19 58.592 19H55.19ZM56.492 17.894H58.508C59.768 17.894 60.7107 17.5767 61.336 16.942C61.9613 16.298 62.274 15.3367 62.274 14.058C62.274 12.7793 61.9567 11.8227 61.322 11.188C60.6967 10.5533 59.7587 10.236 58.508 10.236H56.492V17.894ZM68.379 19.126C67.707 19.126 67.1237 18.9813 66.629 18.692C66.1343 18.4027 65.7517 17.992 65.481 17.46C65.2103 16.928 65.075 16.3027 65.075 15.584C65.075 14.8653 65.2103 14.2447 65.481 13.722C65.7517 13.19 66.1343 12.7793 66.629 12.49C67.1237 12.2007 67.707 12.056 68.379 12.056C69.051 12.056 69.6343 12.2007 70.129 12.49C70.6237 12.7793 71.0063 13.19 71.277 13.722C71.5477 14.2447 71.683 14.8653 71.683 15.584C71.683 16.3027 71.5477 16.928 71.277 17.46C71.0063 17.992 70.6237 18.4027 70.129 18.692C69.6343 18.9813 69.051 19.126 68.379 19.126ZM68.379 18.118C68.995 18.118 69.485 17.9033 69.849 17.474C70.213 17.0353 70.395 16.4053 70.395 15.584C70.395 14.7627 70.213 14.1373 69.849 13.708C69.485 13.2787 68.995 13.064 68.379 13.064C67.7723 13.064 67.2823 13.2787 66.909 13.708C66.545 14.1373 66.363 14.7627 66.363 15.584C66.363 16.4053 66.545 17.0353 66.909 17.474C67.2823 17.9033 67.7723 18.118 68.379 18.118ZM75.0396 19L72.4776 12.182H73.7936L75.8376 17.978H75.5016L77.6156 12.182H78.6376L80.7096 17.978H80.3876L82.4596 12.182H83.7056L81.1436 19H79.9536L77.7696 13.036H78.4136L76.2296 19H75.0396ZM85.0181 19V12.182H86.2641V13.666H86.1101C86.3061 13.134 86.6234 12.7327 87.0621 12.462C87.5101 12.1913 88.0188 12.056 88.5881 12.056C89.1388 12.056 89.5914 12.154 89.9461 12.35C90.3008 12.546 90.5668 12.8493 90.7441 13.26C90.9214 13.6613 91.0101 14.1653 91.0101 14.772V19H89.7361V14.842C89.7361 14.4407 89.6848 14.1093 89.5821 13.848C89.4794 13.5867 89.3161 13.3953 89.0921 13.274C88.8774 13.1527 88.6021 13.092 88.2661 13.092C87.8741 13.092 87.5288 13.176 87.2301 13.344C86.9314 13.512 86.6981 13.75 86.5301 14.058C86.3714 14.366 86.2921 14.7253 86.2921 15.136V19H85.0181ZM95.1998 19.126C94.4718 19.126 93.9258 18.9207 93.5618 18.51C93.2071 18.09 93.0298 17.488 93.0298 16.704V9.13H94.3038V16.606C94.3038 16.9233 94.3458 17.194 94.4298 17.418C94.5231 17.6327 94.6538 17.7913 94.8218 17.894C94.9991 17.9967 95.2185 18.048 95.4798 18.048C95.5825 18.048 95.6851 18.0433 95.7878 18.034C95.8998 18.0247 96.0025 18.006 96.0958 17.978L96.0678 19.014C95.9185 19.0513 95.7691 19.0793 95.6198 19.098C95.4798 19.1167 95.3398 19.126 95.1998 19.126ZM100.07 19.126C99.3984 19.126 98.8151 18.9813 98.3204 18.692C97.8257 18.4027 97.4431 17.992 97.1724 17.46C96.9017 16.928 96.7664 16.3027 96.7664 15.584C96.7664 14.8653 96.9017 14.2447 97.1724 13.722C97.4431 13.19 97.8257 12.7793 98.3204 12.49C98.8151 12.2007 99.3984 12.056 100.07 12.056C100.742 12.056 101.326 12.2007 101.82 12.49C102.315 12.7793 102.698 13.19 102.968 13.722C103.239 14.2447 103.374 14.8653 103.374 15.584C103.374 16.3027 103.239 16.928 102.968 17.46C102.698 17.992 102.315 18.4027 101.82 18.692C101.326 18.9813 100.742 19.126 100.07 19.126ZM100.07 18.118C100.686 18.118 101.176 17.9033 101.54 17.474C101.904 17.0353 102.086 16.4053 102.086 15.584C102.086 14.7627 101.904 14.1373 101.54 13.708C101.176 13.2787 100.686 13.064 100.07 13.064C99.4637 13.064 98.9737 13.2787 98.6004 13.708C98.2364 14.1373 98.0544 14.7627 98.0544 15.584C98.0544 16.4053 98.2364 17.0353 98.6004 17.474C98.9737 17.9033 99.4637 18.118 100.07 18.118ZM107.176 19.126C106.71 19.126 106.285 19.0327 105.902 18.846C105.529 18.6593 105.235 18.4073 105.02 18.09C104.815 17.7727 104.712 17.418 104.712 17.026C104.712 16.522 104.838 16.1253 105.09 15.836C105.342 15.5467 105.767 15.3413 106.364 15.22C106.962 15.0893 107.764 15.024 108.772 15.024H109.43V15.836H108.8C108.259 15.836 107.806 15.8547 107.442 15.892C107.078 15.9293 106.789 15.99 106.574 16.074C106.36 16.158 106.206 16.2747 106.112 16.424C106.019 16.564 105.972 16.7413 105.972 16.956C105.972 17.32 106.098 17.6187 106.35 17.852C106.612 18.0853 106.966 18.202 107.414 18.202C107.769 18.202 108.082 18.118 108.352 17.95C108.623 17.7727 108.838 17.5393 108.996 17.25C109.155 16.9513 109.234 16.6107 109.234 16.228V14.618C109.234 14.0673 109.122 13.6707 108.898 13.428C108.674 13.176 108.296 13.05 107.764 13.05C107.372 13.05 106.98 13.1107 106.588 13.232C106.206 13.3533 105.809 13.54 105.398 13.792L104.992 12.882C105.235 12.714 105.51 12.5693 105.818 12.448C106.136 12.3173 106.462 12.2193 106.798 12.154C107.144 12.0887 107.475 12.056 107.792 12.056C108.399 12.056 108.898 12.154 109.29 12.35C109.682 12.5367 109.976 12.8307 110.172 13.232C110.368 13.624 110.466 14.128 110.466 14.744V19H109.262V17.446H109.388C109.314 17.7913 109.174 18.09 108.968 18.342C108.763 18.594 108.506 18.79 108.198 18.93C107.9 19.0607 107.559 19.126 107.176 19.126ZM115.075 19.126C114.478 19.126 113.951 18.986 113.493 18.706C113.045 18.4167 112.695 18.006 112.443 17.474C112.191 16.9327 112.065 16.3027 112.065 15.584C112.065 14.856 112.187 14.2307 112.429 13.708C112.681 13.176 113.031 12.77 113.479 12.49C113.937 12.2007 114.469 12.056 115.075 12.056C115.682 12.056 116.205 12.21 116.643 12.518C117.082 12.8167 117.376 13.218 117.525 13.722H117.371V9.13H118.645V19H117.385V17.418H117.525C117.385 17.9407 117.091 18.356 116.643 18.664C116.205 18.972 115.682 19.126 115.075 19.126ZM115.369 18.118C115.985 18.118 116.475 17.9033 116.839 17.474C117.203 17.0353 117.385 16.4053 117.385 15.584C117.385 14.7627 117.203 14.1373 116.839 13.708C116.475 13.2787 115.985 13.064 115.369 13.064C114.763 13.064 114.273 13.2787 113.899 13.708C113.535 14.1373 113.353 14.7627 113.353 15.584C113.353 16.4053 113.535 17.0353 113.899 17.474C114.273 17.9033 114.763 18.118 115.369 18.118ZM127.223 19.126C126.551 19.126 125.967 18.9813 125.473 18.692C124.978 18.4027 124.595 17.992 124.325 17.46C124.054 16.928 123.919 16.3027 123.919 15.584C123.919 14.8653 124.054 14.2447 124.325 13.722C124.595 13.19 124.978 12.7793 125.473 12.49C125.967 12.2007 126.551 12.056 127.223 12.056C127.895 12.056 128.478 12.2007 128.973 12.49C129.467 12.7793 129.85 13.19 130.121 13.722C130.391 14.2447 130.527 14.8653 130.527 15.584C130.527 16.3027 130.391 16.928 130.121 17.46C129.85 17.992 129.467 18.4027 128.973 18.692C128.478 18.9813 127.895 19.126 127.223 19.126ZM127.223 18.118C127.839 18.118 128.329 17.9033 128.693 17.474C129.057 17.0353 129.239 16.4053 129.239 15.584C129.239 14.7627 129.057 14.1373 128.693 13.708C128.329 13.2787 127.839 13.064 127.223 13.064C126.616 13.064 126.126 13.2787 125.753 13.708C125.389 14.1373 125.207 14.7627 125.207 15.584C125.207 16.4053 125.389 17.0353 125.753 17.474C126.126 17.9033 126.616 18.118 127.223 18.118ZM132.159 19V12.182H133.405V13.666H133.251C133.447 13.134 133.764 12.7327 134.203 12.462C134.651 12.1913 135.159 12.056 135.729 12.056C136.279 12.056 136.732 12.154 137.087 12.35C137.441 12.546 137.707 12.8493 137.885 13.26C138.062 13.6613 138.151 14.1653 138.151 14.772V19H136.877V14.842C136.877 14.4407 136.825 14.1093 136.723 13.848C136.62 13.5867 136.457 13.3953 136.233 13.274C136.018 13.1527 135.743 13.092 135.407 13.092C135.015 13.092 134.669 13.176 134.371 13.344C134.072 13.512 133.839 13.75 133.671 14.058C133.512 14.366 133.433 14.7253 133.433 15.136V19H132.159ZM146.635 19.126C145.804 19.126 145.184 18.9113 144.773 18.482C144.362 18.0433 144.157 17.418 144.157 16.606V13.162H142.827V12.182H144.157V10.11H145.431V12.182H147.573V13.162H145.431V16.494C145.431 17.0073 145.538 17.3947 145.753 17.656C145.968 17.9173 146.322 18.048 146.817 18.048C146.966 18.048 147.111 18.034 147.251 18.006C147.4 17.9687 147.54 17.9313 147.671 17.894L147.881 18.846C147.75 18.93 147.564 18.9953 147.321 19.042C147.088 19.098 146.859 19.126 146.635 19.126ZM148.825 19V9.13H150.099V13.666H149.917C150.113 13.134 150.43 12.7327 150.869 12.462C151.317 12.1913 151.825 12.056 152.395 12.056C152.945 12.056 153.398 12.1587 153.753 12.364C154.107 12.56 154.373 12.8587 154.551 13.26C154.728 13.6613 154.817 14.1653 154.817 14.772V19H153.543V14.842C153.543 14.4407 153.491 14.1093 153.389 13.848C153.286 13.5867 153.123 13.3953 152.899 13.274C152.684 13.1527 152.409 13.092 152.073 13.092C151.681 13.092 151.335 13.176 151.037 13.344C150.738 13.512 150.505 13.75 150.337 14.058C150.178 14.366 150.099 14.7253 150.099 15.136V19H148.825ZM159.986 19.126C159.249 19.126 158.614 18.986 158.082 18.706C157.56 18.4167 157.154 18.0107 156.864 17.488C156.575 16.956 156.43 16.3307 156.43 15.612C156.43 14.9027 156.57 14.282 156.85 13.75C157.14 13.218 157.532 12.8027 158.026 12.504C158.53 12.2053 159.104 12.056 159.748 12.056C160.374 12.056 160.906 12.1913 161.344 12.462C161.792 12.7327 162.133 13.12 162.366 13.624C162.609 14.1187 162.73 14.716 162.73 15.416V15.878H157.424V15.066H161.89L161.652 15.262C161.652 14.534 161.494 13.974 161.176 13.582C160.859 13.1807 160.392 12.98 159.776 12.98C159.328 12.98 158.946 13.0873 158.628 13.302C158.311 13.5073 158.068 13.8013 157.9 14.184C157.732 14.5573 157.648 14.9913 157.648 15.486V15.57C157.648 16.13 157.737 16.6013 157.914 16.984C158.101 17.3573 158.367 17.642 158.712 17.838C159.058 18.0247 159.482 18.118 159.986 18.118C160.388 18.118 160.775 18.0573 161.148 17.936C161.531 17.8053 161.89 17.6047 162.226 17.334L162.618 18.216C162.31 18.496 161.914 18.72 161.428 18.888C160.952 19.0467 160.472 19.126 159.986 19.126Z" fill="white"/>
<path d="M47.026 45L55.32 26.67H58.05L66.344 45H62.964L60.754 39.852L62.158 40.762H51.186L52.59 39.852L50.406 45H47.026ZM56.646 30.284L53.006 38.942L52.33 38.11H61.014L60.364 38.942L56.698 30.284H56.646ZM68.0377 49.68V32.286H71.2097V34.964H70.9497C71.2097 34.08 71.7383 33.3693 72.5357 32.832C73.3503 32.2947 74.295 32.026 75.3697 32.026C76.479 32.026 77.4497 32.2947 78.2817 32.832C79.131 33.3693 79.7897 34.132 80.2577 35.12C80.7257 36.0907 80.9597 37.2607 80.9597 38.63C80.9597 39.982 80.7257 41.1607 80.2577 42.166C79.7897 43.154 79.1397 43.9167 78.3077 44.454C77.4757 44.9913 76.4963 45.26 75.3697 45.26C74.3123 45.26 73.385 45 72.5877 44.48C71.7903 43.9427 71.253 43.2493 70.9757 42.4H71.2877V49.68H68.0377ZM74.4597 42.79C75.4303 42.79 76.2103 42.4433 76.7997 41.75C77.389 41.0393 77.6837 39.9993 77.6837 38.63C77.6837 37.2433 77.389 36.212 76.7997 35.536C76.2103 34.8427 75.4303 34.496 74.4597 34.496C73.489 34.496 72.709 34.8427 72.1197 35.536C71.5303 36.212 71.2357 37.2433 71.2357 38.63C71.2357 39.9993 71.5303 41.0393 72.1197 41.75C72.709 42.4433 73.489 42.79 74.4597 42.79ZM83.6275 49.68V32.286H86.7995V34.964H86.5395C86.7995 34.08 87.3282 33.3693 88.1255 32.832C88.9402 32.2947 89.8848 32.026 90.9595 32.026C92.0688 32.026 93.0395 32.2947 93.8715 32.832C94.7208 33.3693 95.3795 34.132 95.8475 35.12C96.3155 36.0907 96.5495 37.2607 96.5495 38.63C96.5495 39.982 96.3155 41.1607 95.8475 42.166C95.3795 43.154 94.7295 43.9167 93.8975 44.454C93.0655 44.9913 92.0862 45.26 90.9595 45.26C89.9022 45.26 88.9748 45 88.1775 44.48C87.3802 43.9427 86.8428 43.2493 86.5655 42.4H86.8775V49.68H83.6275ZM90.0495 42.79C91.0202 42.79 91.8002 42.4433 92.3895 41.75C92.9788 41.0393 93.2735 39.9993 93.2735 38.63C93.2735 37.2433 92.9788 36.212 92.3895 35.536C91.8002 34.8427 91.0202 34.496 90.0495 34.496C89.0788 34.496 88.2988 34.8427 87.7095 35.536C87.1202 36.212 86.8255 37.2433 86.8255 38.63C86.8255 39.9993 87.1202 41.0393 87.7095 41.75C88.2988 42.4433 89.0788 42.79 90.0495 42.79ZM112.855 45.26C111.902 45.26 110.983 45.1733 110.099 45C109.232 44.844 108.426 44.61 107.681 44.298C106.953 43.986 106.303 43.6133 105.731 43.18L106.745 40.554C107.317 40.9527 107.915 41.2993 108.539 41.594C109.18 41.8713 109.856 42.088 110.567 42.244C111.295 42.3827 112.058 42.452 112.855 42.452C114.224 42.452 115.221 42.2267 115.845 41.776C116.469 41.308 116.781 40.71 116.781 39.982C116.781 39.5833 116.686 39.2453 116.495 38.968C116.304 38.6733 115.992 38.422 115.559 38.214C115.126 38.006 114.554 37.8327 113.843 37.694L110.983 37.096C109.336 36.7493 108.106 36.1687 107.291 35.354C106.494 34.522 106.095 33.43 106.095 32.078C106.095 30.934 106.398 29.9373 107.005 29.088C107.612 28.2387 108.452 27.58 109.527 27.112C110.602 26.644 111.841 26.41 113.245 26.41C114.077 26.41 114.874 26.4967 115.637 26.67C116.417 26.826 117.128 27.0687 117.769 27.398C118.428 27.71 119 28.0913 119.485 28.542L118.471 31.038C117.743 30.4313 116.946 29.9807 116.079 29.686C115.212 29.374 114.259 29.218 113.219 29.218C112.422 29.218 111.737 29.3307 111.165 29.556C110.593 29.7813 110.151 30.102 109.839 30.518C109.544 30.9167 109.397 31.3933 109.397 31.948C109.397 32.572 109.605 33.0747 110.021 33.456C110.437 33.82 111.148 34.106 112.153 34.314L114.987 34.912C116.703 35.276 117.977 35.848 118.809 36.628C119.658 37.408 120.083 38.448 120.083 39.748C120.083 40.84 119.788 41.802 119.199 42.634C118.61 43.466 117.769 44.116 116.677 44.584C115.602 45.0347 114.328 45.26 112.855 45.26ZM128.325 45.26C126.626 45.26 125.361 44.8353 124.529 43.986C123.697 43.1367 123.281 41.8973 123.281 40.268V34.73H120.837V32.286H123.281V28.49H126.531V32.286H130.379V34.73H126.531V40.086C126.531 40.918 126.713 41.542 127.077 41.958C127.441 42.374 128.03 42.582 128.845 42.582C129.087 42.582 129.339 42.556 129.599 42.504C129.859 42.4347 130.127 42.3653 130.405 42.296L130.899 44.688C130.587 44.8613 130.188 45 129.703 45.104C129.235 45.208 128.775 45.26 128.325 45.26ZM138.15 45.26C136.833 45.26 135.689 44.9913 134.718 44.454C133.747 43.9167 132.993 43.154 132.456 42.166C131.919 41.1607 131.65 39.982 131.65 38.63C131.65 37.278 131.919 36.108 132.456 35.12C132.993 34.132 133.747 33.3693 134.718 32.832C135.689 32.2947 136.833 32.026 138.15 32.026C139.467 32.026 140.611 32.2947 141.582 32.832C142.553 33.3693 143.307 34.132 143.844 35.12C144.381 36.108 144.65 37.278 144.65 38.63C144.65 39.982 144.381 41.1607 143.844 42.166C143.307 43.154 142.553 43.9167 141.582 44.454C140.611 44.9913 139.467 45.26 138.15 45.26ZM138.15 42.79C139.121 42.79 139.901 42.4433 140.49 41.75C141.079 41.0393 141.374 39.9993 141.374 38.63C141.374 37.2433 141.079 36.212 140.49 35.536C139.901 34.8427 139.121 34.496 138.15 34.496C137.179 34.496 136.399 34.8427 135.81 35.536C135.221 36.212 134.926 37.2433 134.926 38.63C134.926 39.9993 135.221 41.0393 135.81 41.75C136.399 42.4433 137.179 42.79 138.15 42.79ZM147.333 45V32.286H150.505V35.354H150.245C150.487 34.314 150.964 33.5253 151.675 32.988C152.385 32.4333 153.33 32.1127 154.509 32.026L155.497 31.948L155.705 34.704L153.833 34.886C152.775 34.99 151.978 35.3193 151.441 35.874C150.903 36.4113 150.635 37.174 150.635 38.162V45H147.333ZM163.577 45.26C162.138 45.26 160.899 44.9913 159.859 44.454C158.819 43.9167 158.013 43.154 157.441 42.166C156.886 41.178 156.609 40.008 156.609 38.656C156.609 37.3387 156.878 36.186 157.415 35.198C157.97 34.21 158.724 33.4387 159.677 32.884C160.648 32.312 161.748 32.026 162.979 32.026C164.192 32.026 165.232 32.286 166.099 32.806C166.966 33.326 167.633 34.0627 168.101 35.016C168.586 35.9693 168.829 37.1047 168.829 38.422V39.384H159.235V37.512H166.541L166.125 37.902C166.125 36.7233 165.865 35.822 165.345 35.198C164.825 34.5567 164.08 34.236 163.109 34.236C162.381 34.236 161.757 34.4093 161.237 34.756C160.734 35.0853 160.344 35.562 160.067 36.186C159.807 36.7927 159.677 37.5207 159.677 38.37V38.552C159.677 39.5053 159.824 40.294 160.119 40.918C160.414 41.542 160.856 42.01 161.445 42.322C162.034 42.634 162.762 42.79 163.629 42.79C164.34 42.79 165.05 42.686 165.761 42.478C166.472 42.2527 167.122 41.906 167.711 41.438L168.621 43.622C168.014 44.1247 167.252 44.5233 166.333 44.818C165.414 45.1127 164.496 45.26 163.577 45.26Z" fill="white"/>
<path d="M11.0046 10C12.5847 10.6428 14.0073 11.584 15.489 12.4088C21.1801 15.5786 26.8563 18.7755 32.5371 21.9632C32.6478 22.0251 32.7511 22.1002 32.858 22.1687C30.9888 24.0407 29.1205 25.9127 27.2513 27.7847C27.1856 27.8504 27.1096 27.9049 27.0383 27.964C27.0083 27.9555 26.9792 27.9461 26.9492 27.9377C26.8788 27.8598 26.8112 27.7791 26.7371 27.705C21.0319 21.9885 15.3266 16.272 9.62141 10.5564C9.53883 10.4739 9.45063 10.3969 9.36523 10.3172C9.56698 10.1182 9.8682 10.1473 10.0925 10.0009C10.3965 10 10.7005 10 11.0046 10Z" fill="#29CB5E"/>
<path d="M32.8551 33.8549C31.5161 34.6131 30.1789 35.377 28.8361 36.1295C23.1562 39.3162 17.4745 42.501 11.7908 45.682C11.5431 45.8209 11.2672 45.9082 11.0045 46.0189C10.677 46.0189 10.3495 46.0189 10.0211 46.0189C9.83904 45.8463 9.55378 45.8894 9.37549 45.7102C15.2224 39.8501 21.0703 33.9901 26.9172 28.13C26.95 28.0972 26.9876 28.0681 27.0223 28.0371C27.0645 28.054 27.1067 28.0718 27.148 28.0887C27.2409 28.1929 27.3291 28.3017 27.4277 28.4012C29.2368 30.2197 31.046 32.0373 32.8551 33.8549Z" fill="#D83F21"/>
<path d="M32.8551 33.8556C31.046 32.038 29.2368 30.2204 27.4286 28.4019C27.3301 28.3034 27.2419 28.1945 27.1499 28.0894C27.2719 27.9487 27.4352 28.0125 27.5778 28.0125C31.9346 28.0078 36.2923 28.0068 40.6492 28.005C40.6801 28.9396 40.286 29.6828 39.5015 30.1388C37.3349 31.3971 35.1419 32.6086 32.9574 33.8369C32.9283 33.8538 32.8889 33.85 32.8551 33.8556Z" fill="#FEAA00"/>
<path d="M40.6494 28.0046C36.2926 28.0064 31.9349 28.0064 27.578 28.0121C27.4345 28.0121 27.2712 27.9483 27.1502 28.089C27.1079 28.0721 27.0657 28.0543 27.0244 28.0374C27.0291 28.013 27.0338 27.9886 27.0385 27.9633C27.1098 27.9042 27.1858 27.8497 27.2515 27.7841C29.1207 25.913 30.9899 24.0409 32.8582 22.168C33.6014 22.578 34.3464 22.9853 35.0877 23.3991C36.5122 24.1948 37.9385 24.9877 39.3563 25.7938C40.2056 26.278 40.6475 27.0155 40.6494 28.0046Z" fill="#FED401"/>
<path d="M27.0373 27.9638C27.0327 27.9882 27.028 28.0135 27.0233 28.0379C26.9886 28.0679 26.951 28.097 26.9182 28.1299C21.0703 33.9899 15.2234 39.85 9.37647 45.71C8.40433 45.2146 8.00552 44.3785 8.00365 43.3294C7.99802 38.8769 7.99989 34.4244 8.00271 29.9719C8.00365 29.3169 8.0271 28.6619 8.04118 28.0079C14.2344 28.0088 20.4275 28.0088 26.6207 28.0079C26.7333 28.0079 26.8581 28.0445 26.9491 27.9375C26.9782 27.9469 27.0083 27.9553 27.0373 27.9638Z" fill="#2C9ED8"/>
<path d="M26.9494 27.9369C26.8574 28.0439 26.7335 28.0073 26.6209 28.0073C20.4278 28.0083 14.2346 28.0073 8.0414 28.0073C8.04047 22.8294 8.0339 17.6506 8.04234 12.4728C8.04422 11.5016 8.50777 10.779 9.36543 10.3164C9.45082 10.3962 9.53903 10.4731 9.6216 10.5557C15.3278 16.2712 21.033 21.9877 26.7373 27.7052C26.8114 27.7784 26.8781 27.86 26.9494 27.9369Z" fill="#32BAFE"/>
</svg>
