<svg width="181" height="53" viewBox="0 0 181 53" fill="none" xmlns="http://www.w3.org/2000/svg">
<rect width="181" height="53" rx="6" fill="black"/>
<path d="M31.6976 44.7269C31.2912 44.7269 30.8838 44.7269 30.4774 44.7269C30.4558 44.7017 30.4387 44.6595 30.4136 44.6541C29.5251 44.4814 28.741 44.0372 27.9119 43.7072C26.5811 43.1785 25.2098 43.0778 23.7972 43.2729C22.246 43.4869 20.9359 44.4023 19.4261 44.7269C18.972 44.7269 18.517 44.7269 18.0629 44.7269C18.0539 44.6694 18.0125 44.6568 17.9631 44.6469C16.7446 44.396 15.7879 43.7 14.9246 42.8503C13.6873 41.6336 12.718 40.2129 11.8538 38.7211C9.65525 34.9282 8.4557 30.8728 8.74435 26.4495C8.84956 24.84 9.20744 23.2816 9.98077 21.8519C11.0715 19.8358 12.6604 18.3261 14.7313 17.3423C16.1952 16.6472 17.7302 16.4314 19.338 16.712C20.4035 16.8981 21.4133 17.2569 22.416 17.6346C24.1739 18.2964 25.904 18.3045 27.6404 17.5554C28.3067 17.2677 28.9982 17.0366 29.7068 16.8639C31.1986 16.5016 32.6814 16.4692 34.1633 16.9278C35.9842 17.4916 37.4724 18.5464 38.7133 19.9752C39.0046 20.3106 39.0073 20.307 38.6404 20.5291C37.8356 21.0183 37.1307 21.6235 36.5525 22.3671C33.3072 26.544 34.8988 32.7072 39.7716 34.8086C40.027 34.9192 40.0441 35.0064 39.9407 35.2447C39.0262 37.3453 37.8581 39.2957 36.4913 41.1301C35.8097 42.0437 35.0481 42.8826 34.1579 43.5993C33.4322 44.1838 32.6013 44.5327 31.6976 44.7269Z" fill="white"/>
<path d="M23.772 15.8386C23.9851 13.0115 25.3042 10.8399 27.6503 9.28788C28.6646 8.61707 29.7769 8.17106 30.9953 8.0083C31.2264 7.97773 31.266 8.02628 31.2867 8.24389C31.489 10.4533 30.7274 12.3524 29.3893 14.0474C28.4173 15.2793 27.153 16.1147 25.6486 16.5724C25.1451 16.7253 24.628 16.808 24.0975 16.8134C23.9185 16.8152 23.8322 16.7747 23.8241 16.5886C23.8133 16.3386 23.79 16.0886 23.772 15.8386Z" fill="white"/>
<path d="M56.19 18V8.13H59.592C60.6653 8.13 61.5753 8.32133 62.322 8.704C63.078 9.07733 63.652 9.63267 64.044 10.37C64.436 11.098 64.632 11.994 64.632 13.058C64.632 14.122 64.436 15.0227 64.044 15.76C63.652 16.488 63.078 17.0433 62.322 17.426C61.5753 17.8087 60.6653 18 59.592 18H56.19ZM57.492 16.894H59.508C60.768 16.894 61.7107 16.5767 62.336 15.942C62.9613 15.298 63.274 14.3367 63.274 13.058C63.274 11.7793 62.9567 10.8227 62.322 10.188C61.6967 9.55333 60.7587 9.236 59.508 9.236H57.492V16.894ZM69.379 18.126C68.707 18.126 68.1237 17.9813 67.629 17.692C67.1343 17.4027 66.7517 16.992 66.481 16.46C66.2103 15.928 66.075 15.3027 66.075 14.584C66.075 13.8653 66.2103 13.2447 66.481 12.722C66.7517 12.19 67.1343 11.7793 67.629 11.49C68.1237 11.2007 68.707 11.056 69.379 11.056C70.051 11.056 70.6343 11.2007 71.129 11.49C71.6237 11.7793 72.0063 12.19 72.277 12.722C72.5477 13.2447 72.683 13.8653 72.683 14.584C72.683 15.3027 72.5477 15.928 72.277 16.46C72.0063 16.992 71.6237 17.4027 71.129 17.692C70.6343 17.9813 70.051 18.126 69.379 18.126ZM69.379 17.118C69.995 17.118 70.485 16.9033 70.849 16.474C71.213 16.0353 71.395 15.4053 71.395 14.584C71.395 13.7627 71.213 13.1373 70.849 12.708C70.485 12.2787 69.995 12.064 69.379 12.064C68.7723 12.064 68.2823 12.2787 67.909 12.708C67.545 13.1373 67.363 13.7627 67.363 14.584C67.363 15.4053 67.545 16.0353 67.909 16.474C68.2823 16.9033 68.7723 17.118 69.379 17.118ZM76.0396 18L73.4776 11.182H74.7936L76.8376 16.978H76.5016L78.6156 11.182H79.6376L81.7096 16.978H81.3876L83.4596 11.182H84.7056L82.1436 18H80.9536L78.7696 12.036H79.4136L77.2296 18H76.0396ZM86.0181 18V11.182H87.2641V12.666H87.1101C87.3061 12.134 87.6234 11.7327 88.0621 11.462C88.5101 11.1913 89.0188 11.056 89.5881 11.056C90.1388 11.056 90.5914 11.154 90.9461 11.35C91.3008 11.546 91.5668 11.8493 91.7441 12.26C91.9214 12.6613 92.0101 13.1653 92.0101 13.772V18H90.7361V13.842C90.7361 13.4407 90.6848 13.1093 90.5821 12.848C90.4794 12.5867 90.3161 12.3953 90.0921 12.274C89.8774 12.1527 89.6021 12.092 89.2661 12.092C88.8741 12.092 88.5288 12.176 88.2301 12.344C87.9314 12.512 87.6981 12.75 87.5301 13.058C87.3714 13.366 87.2921 13.7253 87.2921 14.136V18H86.0181ZM96.1998 18.126C95.4718 18.126 94.9258 17.9207 94.5618 17.51C94.2071 17.09 94.0298 16.488 94.0298 15.704V8.13H95.3038V15.606C95.3038 15.9233 95.3458 16.194 95.4298 16.418C95.5231 16.6327 95.6538 16.7913 95.8218 16.894C95.9991 16.9967 96.2185 17.048 96.4798 17.048C96.5825 17.048 96.6851 17.0433 96.7878 17.034C96.8998 17.0247 97.0025 17.006 97.0958 16.978L97.0678 18.014C96.9185 18.0513 96.7691 18.0793 96.6198 18.098C96.4798 18.1167 96.3398 18.126 96.1998 18.126ZM101.07 18.126C100.398 18.126 99.8151 17.9813 99.3204 17.692C98.8257 17.4027 98.4431 16.992 98.1724 16.46C97.9017 15.928 97.7664 15.3027 97.7664 14.584C97.7664 13.8653 97.9017 13.2447 98.1724 12.722C98.4431 12.19 98.8257 11.7793 99.3204 11.49C99.8151 11.2007 100.398 11.056 101.07 11.056C101.742 11.056 102.326 11.2007 102.82 11.49C103.315 11.7793 103.698 12.19 103.968 12.722C104.239 13.2447 104.374 13.8653 104.374 14.584C104.374 15.3027 104.239 15.928 103.968 16.46C103.698 16.992 103.315 17.4027 102.82 17.692C102.326 17.9813 101.742 18.126 101.07 18.126ZM101.07 17.118C101.686 17.118 102.176 16.9033 102.54 16.474C102.904 16.0353 103.086 15.4053 103.086 14.584C103.086 13.7627 102.904 13.1373 102.54 12.708C102.176 12.2787 101.686 12.064 101.07 12.064C100.464 12.064 99.9737 12.2787 99.6004 12.708C99.2364 13.1373 99.0544 13.7627 99.0544 14.584C99.0544 15.4053 99.2364 16.0353 99.6004 16.474C99.9737 16.9033 100.464 17.118 101.07 17.118ZM108.176 18.126C107.71 18.126 107.285 18.0327 106.902 17.846C106.529 17.6593 106.235 17.4073 106.02 17.09C105.815 16.7727 105.712 16.418 105.712 16.026C105.712 15.522 105.838 15.1253 106.09 14.836C106.342 14.5467 106.767 14.3413 107.364 14.22C107.962 14.0893 108.764 14.024 109.772 14.024H110.43V14.836H109.8C109.259 14.836 108.806 14.8547 108.442 14.892C108.078 14.9293 107.789 14.99 107.574 15.074C107.36 15.158 107.206 15.2747 107.112 15.424C107.019 15.564 106.972 15.7413 106.972 15.956C106.972 16.32 107.098 16.6187 107.35 16.852C107.612 17.0853 107.966 17.202 108.414 17.202C108.769 17.202 109.082 17.118 109.352 16.95C109.623 16.7727 109.838 16.5393 109.996 16.25C110.155 15.9513 110.234 15.6107 110.234 15.228V13.618C110.234 13.0673 110.122 12.6707 109.898 12.428C109.674 12.176 109.296 12.05 108.764 12.05C108.372 12.05 107.98 12.1107 107.588 12.232C107.206 12.3533 106.809 12.54 106.398 12.792L105.992 11.882C106.235 11.714 106.51 11.5693 106.818 11.448C107.136 11.3173 107.462 11.2193 107.798 11.154C108.144 11.0887 108.475 11.056 108.792 11.056C109.399 11.056 109.898 11.154 110.29 11.35C110.682 11.5367 110.976 11.8307 111.172 12.232C111.368 12.624 111.466 13.128 111.466 13.744V18H110.262V16.446H110.388C110.314 16.7913 110.174 17.09 109.968 17.342C109.763 17.594 109.506 17.79 109.198 17.93C108.9 18.0607 108.559 18.126 108.176 18.126ZM116.075 18.126C115.478 18.126 114.951 17.986 114.493 17.706C114.045 17.4167 113.695 17.006 113.443 16.474C113.191 15.9327 113.065 15.3027 113.065 14.584C113.065 13.856 113.187 13.2307 113.429 12.708C113.681 12.176 114.031 11.77 114.479 11.49C114.937 11.2007 115.469 11.056 116.075 11.056C116.682 11.056 117.205 11.21 117.643 11.518C118.082 11.8167 118.376 12.218 118.525 12.722H118.371V8.13H119.645V18H118.385V16.418H118.525C118.385 16.9407 118.091 17.356 117.643 17.664C117.205 17.972 116.682 18.126 116.075 18.126ZM116.369 17.118C116.985 17.118 117.475 16.9033 117.839 16.474C118.203 16.0353 118.385 15.4053 118.385 14.584C118.385 13.7627 118.203 13.1373 117.839 12.708C117.475 12.2787 116.985 12.064 116.369 12.064C115.763 12.064 115.273 12.2787 114.899 12.708C114.535 13.1373 114.353 13.7627 114.353 14.584C114.353 15.4053 114.535 16.0353 114.899 16.474C115.273 16.9033 115.763 17.118 116.369 17.118ZM128.223 18.126C127.551 18.126 126.967 17.9813 126.473 17.692C125.978 17.4027 125.595 16.992 125.325 16.46C125.054 15.928 124.919 15.3027 124.919 14.584C124.919 13.8653 125.054 13.2447 125.325 12.722C125.595 12.19 125.978 11.7793 126.473 11.49C126.967 11.2007 127.551 11.056 128.223 11.056C128.895 11.056 129.478 11.2007 129.973 11.49C130.467 11.7793 130.85 12.19 131.121 12.722C131.391 13.2447 131.527 13.8653 131.527 14.584C131.527 15.3027 131.391 15.928 131.121 16.46C130.85 16.992 130.467 17.4027 129.973 17.692C129.478 17.9813 128.895 18.126 128.223 18.126ZM128.223 17.118C128.839 17.118 129.329 16.9033 129.693 16.474C130.057 16.0353 130.239 15.4053 130.239 14.584C130.239 13.7627 130.057 13.1373 129.693 12.708C129.329 12.2787 128.839 12.064 128.223 12.064C127.616 12.064 127.126 12.2787 126.753 12.708C126.389 13.1373 126.207 13.7627 126.207 14.584C126.207 15.4053 126.389 16.0353 126.753 16.474C127.126 16.9033 127.616 17.118 128.223 17.118ZM133.159 18V11.182H134.405V12.666H134.251C134.447 12.134 134.764 11.7327 135.203 11.462C135.651 11.1913 136.159 11.056 136.729 11.056C137.279 11.056 137.732 11.154 138.087 11.35C138.441 11.546 138.707 11.8493 138.885 12.26C139.062 12.6613 139.151 13.1653 139.151 13.772V18H137.877V13.842C137.877 13.4407 137.825 13.1093 137.723 12.848C137.62 12.5867 137.457 12.3953 137.233 12.274C137.018 12.1527 136.743 12.092 136.407 12.092C136.015 12.092 135.669 12.176 135.371 12.344C135.072 12.512 134.839 12.75 134.671 13.058C134.512 13.366 134.433 13.7253 134.433 14.136V18H133.159ZM147.635 18.126C146.804 18.126 146.184 17.9113 145.773 17.482C145.362 17.0433 145.157 16.418 145.157 15.606V12.162H143.827V11.182H145.157V9.11H146.431V11.182H148.573V12.162H146.431V15.494C146.431 16.0073 146.538 16.3947 146.753 16.656C146.968 16.9173 147.322 17.048 147.817 17.048C147.966 17.048 148.111 17.034 148.251 17.006C148.4 16.9687 148.54 16.9313 148.671 16.894L148.881 17.846C148.75 17.93 148.564 17.9953 148.321 18.042C148.088 18.098 147.859 18.126 147.635 18.126ZM149.825 18V8.13H151.099V12.666H150.917C151.113 12.134 151.43 11.7327 151.869 11.462C152.317 11.1913 152.825 11.056 153.395 11.056C153.945 11.056 154.398 11.1587 154.753 11.364C155.107 11.56 155.373 11.8587 155.551 12.26C155.728 12.6613 155.817 13.1653 155.817 13.772V18H154.543V13.842C154.543 13.4407 154.491 13.1093 154.389 12.848C154.286 12.5867 154.123 12.3953 153.899 12.274C153.684 12.1527 153.409 12.092 153.073 12.092C152.681 12.092 152.335 12.176 152.037 12.344C151.738 12.512 151.505 12.75 151.337 13.058C151.178 13.366 151.099 13.7253 151.099 14.136V18H149.825ZM160.986 18.126C160.249 18.126 159.614 17.986 159.082 17.706C158.56 17.4167 158.154 17.0107 157.864 16.488C157.575 15.956 157.43 15.3307 157.43 14.612C157.43 13.9027 157.57 13.282 157.85 12.75C158.14 12.218 158.532 11.8027 159.026 11.504C159.53 11.2053 160.104 11.056 160.748 11.056C161.374 11.056 161.906 11.1913 162.344 11.462C162.792 11.7327 163.133 12.12 163.366 12.624C163.609 13.1187 163.73 13.716 163.73 14.416V14.878H158.424V14.066H162.89L162.652 14.262C162.652 13.534 162.494 12.974 162.176 12.582C161.859 12.1807 161.392 11.98 160.776 11.98C160.328 11.98 159.946 12.0873 159.628 12.302C159.311 12.5073 159.068 12.8013 158.9 13.184C158.732 13.5573 158.648 13.9913 158.648 14.486V14.57C158.648 15.13 158.737 15.6013 158.914 15.984C159.101 16.3573 159.367 16.642 159.712 16.838C160.058 17.0247 160.482 17.118 160.986 17.118C161.388 17.118 161.775 17.0573 162.148 16.936C162.531 16.8053 162.89 16.6047 163.226 16.334L163.618 17.216C163.31 17.496 162.914 17.72 162.428 17.888C161.952 18.0467 161.472 18.126 160.986 18.126Z" fill="white"/>
<path d="M48.026 44L56.32 25.67H59.05L67.344 44H63.964L61.754 38.852L63.158 39.762H52.186L53.59 38.852L51.406 44H48.026ZM57.646 29.284L54.006 37.942L53.33 37.11H62.014L61.364 37.942L57.698 29.284H57.646ZM69.0377 48.68V31.286H72.2097V33.964H71.9497C72.2097 33.08 72.7383 32.3693 73.5357 31.832C74.3503 31.2947 75.295 31.026 76.3697 31.026C77.479 31.026 78.4497 31.2947 79.2817 31.832C80.131 32.3693 80.7897 33.132 81.2577 34.12C81.7257 35.0907 81.9597 36.2607 81.9597 37.63C81.9597 38.982 81.7257 40.1607 81.2577 41.166C80.7897 42.154 80.1397 42.9167 79.3077 43.454C78.4757 43.9913 77.4963 44.26 76.3697 44.26C75.3123 44.26 74.385 44 73.5877 43.48C72.7903 42.9427 72.253 42.2493 71.9757 41.4H72.2877V48.68H69.0377ZM75.4597 41.79C76.4303 41.79 77.2103 41.4433 77.7997 40.75C78.389 40.0393 78.6837 38.9993 78.6837 37.63C78.6837 36.2433 78.389 35.212 77.7997 34.536C77.2103 33.8427 76.4303 33.496 75.4597 33.496C74.489 33.496 73.709 33.8427 73.1197 34.536C72.5303 35.212 72.2357 36.2433 72.2357 37.63C72.2357 38.9993 72.5303 40.0393 73.1197 40.75C73.709 41.4433 74.489 41.79 75.4597 41.79ZM84.6275 48.68V31.286H87.7995V33.964H87.5395C87.7995 33.08 88.3282 32.3693 89.1255 31.832C89.9402 31.2947 90.8848 31.026 91.9595 31.026C93.0688 31.026 94.0395 31.2947 94.8715 31.832C95.7208 32.3693 96.3795 33.132 96.8475 34.12C97.3155 35.0907 97.5495 36.2607 97.5495 37.63C97.5495 38.982 97.3155 40.1607 96.8475 41.166C96.3795 42.154 95.7295 42.9167 94.8975 43.454C94.0655 43.9913 93.0862 44.26 91.9595 44.26C90.9022 44.26 89.9748 44 89.1775 43.48C88.3802 42.9427 87.8428 42.2493 87.5655 41.4H87.8775V48.68H84.6275ZM91.0495 41.79C92.0202 41.79 92.8002 41.4433 93.3895 40.75C93.9788 40.0393 94.2735 38.9993 94.2735 37.63C94.2735 36.2433 93.9788 35.212 93.3895 34.536C92.8002 33.8427 92.0202 33.496 91.0495 33.496C90.0788 33.496 89.2988 33.8427 88.7095 34.536C88.1202 35.212 87.8255 36.2433 87.8255 37.63C87.8255 38.9993 88.1202 40.0393 88.7095 40.75C89.2988 41.4433 90.0788 41.79 91.0495 41.79ZM113.855 44.26C112.902 44.26 111.983 44.1733 111.099 44C110.232 43.844 109.426 43.61 108.681 43.298C107.953 42.986 107.303 42.6133 106.731 42.18L107.745 39.554C108.317 39.9527 108.915 40.2993 109.539 40.594C110.18 40.8713 110.856 41.088 111.567 41.244C112.295 41.3827 113.058 41.452 113.855 41.452C115.224 41.452 116.221 41.2267 116.845 40.776C117.469 40.308 117.781 39.71 117.781 38.982C117.781 38.5833 117.686 38.2453 117.495 37.968C117.304 37.6733 116.992 37.422 116.559 37.214C116.126 37.006 115.554 36.8327 114.843 36.694L111.983 36.096C110.336 35.7493 109.106 35.1687 108.291 34.354C107.494 33.522 107.095 32.43 107.095 31.078C107.095 29.934 107.398 28.9373 108.005 28.088C108.612 27.2387 109.452 26.58 110.527 26.112C111.602 25.644 112.841 25.41 114.245 25.41C115.077 25.41 115.874 25.4967 116.637 25.67C117.417 25.826 118.128 26.0687 118.769 26.398C119.428 26.71 120 27.0913 120.485 27.542L119.471 30.038C118.743 29.4313 117.946 28.9807 117.079 28.686C116.212 28.374 115.259 28.218 114.219 28.218C113.422 28.218 112.737 28.3307 112.165 28.556C111.593 28.7813 111.151 29.102 110.839 29.518C110.544 29.9167 110.397 30.3933 110.397 30.948C110.397 31.572 110.605 32.0747 111.021 32.456C111.437 32.82 112.148 33.106 113.153 33.314L115.987 33.912C117.703 34.276 118.977 34.848 119.809 35.628C120.658 36.408 121.083 37.448 121.083 38.748C121.083 39.84 120.788 40.802 120.199 41.634C119.61 42.466 118.769 43.116 117.677 43.584C116.602 44.0347 115.328 44.26 113.855 44.26ZM129.325 44.26C127.626 44.26 126.361 43.8353 125.529 42.986C124.697 42.1367 124.281 40.8973 124.281 39.268V33.73H121.837V31.286H124.281V27.49H127.531V31.286H131.379V33.73H127.531V39.086C127.531 39.918 127.713 40.542 128.077 40.958C128.441 41.374 129.03 41.582 129.845 41.582C130.087 41.582 130.339 41.556 130.599 41.504C130.859 41.4347 131.127 41.3653 131.405 41.296L131.899 43.688C131.587 43.8613 131.188 44 130.703 44.104C130.235 44.208 129.775 44.26 129.325 44.26ZM139.15 44.26C137.833 44.26 136.689 43.9913 135.718 43.454C134.747 42.9167 133.993 42.154 133.456 41.166C132.919 40.1607 132.65 38.982 132.65 37.63C132.65 36.278 132.919 35.108 133.456 34.12C133.993 33.132 134.747 32.3693 135.718 31.832C136.689 31.2947 137.833 31.026 139.15 31.026C140.467 31.026 141.611 31.2947 142.582 31.832C143.553 32.3693 144.307 33.132 144.844 34.12C145.381 35.108 145.65 36.278 145.65 37.63C145.65 38.982 145.381 40.1607 144.844 41.166C144.307 42.154 143.553 42.9167 142.582 43.454C141.611 43.9913 140.467 44.26 139.15 44.26ZM139.15 41.79C140.121 41.79 140.901 41.4433 141.49 40.75C142.079 40.0393 142.374 38.9993 142.374 37.63C142.374 36.2433 142.079 35.212 141.49 34.536C140.901 33.8427 140.121 33.496 139.15 33.496C138.179 33.496 137.399 33.8427 136.81 34.536C136.221 35.212 135.926 36.2433 135.926 37.63C135.926 38.9993 136.221 40.0393 136.81 40.75C137.399 41.4433 138.179 41.79 139.15 41.79ZM148.333 44V31.286H151.505V34.354H151.245C151.487 33.314 151.964 32.5253 152.675 31.988C153.385 31.4333 154.33 31.1127 155.509 31.026L156.497 30.948L156.705 33.704L154.833 33.886C153.775 33.99 152.978 34.3193 152.441 34.874C151.903 35.4113 151.635 36.174 151.635 37.162V44H148.333ZM164.577 44.26C163.138 44.26 161.899 43.9913 160.859 43.454C159.819 42.9167 159.013 42.154 158.441 41.166C157.886 40.178 157.609 39.008 157.609 37.656C157.609 36.3387 157.878 35.186 158.415 34.198C158.97 33.21 159.724 32.4387 160.677 31.884C161.648 31.312 162.748 31.026 163.979 31.026C165.192 31.026 166.232 31.286 167.099 31.806C167.966 32.326 168.633 33.0627 169.101 34.016C169.586 34.9693 169.829 36.1047 169.829 37.422V38.384H160.235V36.512H167.541L167.125 36.902C167.125 35.7233 166.865 34.822 166.345 34.198C165.825 33.5567 165.08 33.236 164.109 33.236C163.381 33.236 162.757 33.4093 162.237 33.756C161.734 34.0853 161.344 34.562 161.067 35.186C160.807 35.7927 160.677 36.5207 160.677 37.37V37.552C160.677 38.5053 160.824 39.294 161.119 39.918C161.414 40.542 161.856 41.01 162.445 41.322C163.034 41.634 163.762 41.79 164.629 41.79C165.34 41.79 166.05 41.686 166.761 41.478C167.472 41.2527 168.122 40.906 168.711 40.438L169.621 42.622C169.014 43.1247 168.252 43.5233 167.333 43.818C166.414 44.1127 165.496 44.26 164.577 44.26Z" fill="white"/>
</svg>
