<svg width="183" height="55" viewBox="0 0 183 55" fill="none" xmlns="http://www.w3.org/2000/svg">
<rect x="1" y="1" width="181" height="53" rx="6" fill="#13110F"/>
<rect x="0.5" y="0.5" width="182" height="54" rx="6.5" stroke="white" stroke-opacity="0.5"/>
<path d="M32.6979 45.7269C32.2914 45.7269 31.8841 45.7269 31.4776 45.7269C31.4561 45.7017 31.439 45.6595 31.4138 45.6541C30.5254 45.4814 29.7413 45.0372 28.9122 44.7072C27.5814 44.1785 26.2101 44.0778 24.7974 44.2729C23.2463 44.4869 21.9361 45.4023 20.4263 45.7269C19.9722 45.7269 19.5172 45.7269 19.0631 45.7269C19.0541 45.6694 19.0128 45.6568 18.9633 45.6469C17.7449 45.396 16.7881 44.7 15.9249 43.8503C14.6876 42.6336 13.7182 41.2129 12.8541 39.7211C10.6555 35.9282 9.45595 31.8728 9.74459 27.4495C9.8498 25.84 10.2077 24.2816 10.981 22.8519C12.0718 20.8358 13.6607 19.3261 15.7315 18.3423C17.1955 17.6472 18.7304 17.4314 20.3382 17.712C21.4038 17.8981 22.4136 18.2569 23.4162 18.6346C25.1742 19.2964 26.9042 19.3045 28.6406 18.5554C29.3069 18.2677 29.9984 18.0366 30.707 17.8639C32.1988 17.5016 33.6816 17.4692 35.1635 17.9278C36.9844 18.4916 38.4726 19.5464 39.7135 20.9752C40.0049 21.3106 40.0076 21.307 39.6407 21.5291C38.8359 22.0183 38.1309 22.6235 37.5527 23.3671C34.3075 27.544 35.8991 33.7072 40.7719 35.8086C41.0273 35.9192 41.0444 36.0064 40.9409 36.2447C40.0264 38.3453 38.8584 40.2957 37.4916 42.1301C36.81 43.0437 36.0483 43.8826 35.1581 44.5993C34.4324 45.1838 33.6016 45.5327 32.6979 45.7269Z" fill="white"/>
<path d="M24.772 16.8386C24.9851 14.0115 26.3042 11.8399 28.6503 10.2879C29.6646 9.61707 30.7769 9.17106 31.9953 9.0083C32.2264 8.97773 32.266 9.02628 32.2867 9.24389C32.489 11.4533 31.7274 13.3524 30.3893 15.0474C29.4173 16.2793 28.153 17.1147 26.6486 17.5724C26.1451 17.7253 25.628 17.808 25.0975 17.8134C24.9185 17.8152 24.8322 17.7747 24.8241 17.5886C24.8133 17.3386 24.79 17.0886 24.772 16.8386Z" fill="white"/>
<path d="M57.19 19V9.13H60.592C61.6653 9.13 62.5753 9.32133 63.322 9.704C64.078 10.0773 64.652 10.6327 65.044 11.37C65.436 12.098 65.632 12.994 65.632 14.058C65.632 15.122 65.436 16.0227 65.044 16.76C64.652 17.488 64.078 18.0433 63.322 18.426C62.5753 18.8087 61.6653 19 60.592 19H57.19ZM58.492 17.894H60.508C61.768 17.894 62.7107 17.5767 63.336 16.942C63.9613 16.298 64.274 15.3367 64.274 14.058C64.274 12.7793 63.9567 11.8227 63.322 11.188C62.6967 10.5533 61.7587 10.236 60.508 10.236H58.492V17.894ZM70.379 19.126C69.707 19.126 69.1237 18.9813 68.629 18.692C68.1343 18.4027 67.7517 17.992 67.481 17.46C67.2103 16.928 67.075 16.3027 67.075 15.584C67.075 14.8653 67.2103 14.2447 67.481 13.722C67.7517 13.19 68.1343 12.7793 68.629 12.49C69.1237 12.2007 69.707 12.056 70.379 12.056C71.051 12.056 71.6343 12.2007 72.129 12.49C72.6237 12.7793 73.0063 13.19 73.277 13.722C73.5477 14.2447 73.683 14.8653 73.683 15.584C73.683 16.3027 73.5477 16.928 73.277 17.46C73.0063 17.992 72.6237 18.4027 72.129 18.692C71.6343 18.9813 71.051 19.126 70.379 19.126ZM70.379 18.118C70.995 18.118 71.485 17.9033 71.849 17.474C72.213 17.0353 72.395 16.4053 72.395 15.584C72.395 14.7627 72.213 14.1373 71.849 13.708C71.485 13.2787 70.995 13.064 70.379 13.064C69.7723 13.064 69.2823 13.2787 68.909 13.708C68.545 14.1373 68.363 14.7627 68.363 15.584C68.363 16.4053 68.545 17.0353 68.909 17.474C69.2823 17.9033 69.7723 18.118 70.379 18.118ZM77.0396 19L74.4776 12.182H75.7936L77.8376 17.978H77.5016L79.6156 12.182H80.6376L82.7096 17.978H82.3876L84.4596 12.182H85.7056L83.1436 19H81.9536L79.7696 13.036H80.4136L78.2296 19H77.0396ZM87.0181 19V12.182H88.2641V13.666H88.1101C88.3061 13.134 88.6234 12.7327 89.0621 12.462C89.5101 12.1913 90.0188 12.056 90.5881 12.056C91.1388 12.056 91.5914 12.154 91.9461 12.35C92.3008 12.546 92.5668 12.8493 92.7441 13.26C92.9214 13.6613 93.0101 14.1653 93.0101 14.772V19H91.7361V14.842C91.7361 14.4407 91.6848 14.1093 91.5821 13.848C91.4794 13.5867 91.3161 13.3953 91.0921 13.274C90.8774 13.1527 90.6021 13.092 90.2661 13.092C89.8741 13.092 89.5288 13.176 89.2301 13.344C88.9314 13.512 88.6981 13.75 88.5301 14.058C88.3714 14.366 88.2921 14.7253 88.2921 15.136V19H87.0181ZM97.1998 19.126C96.4718 19.126 95.9258 18.9207 95.5618 18.51C95.2071 18.09 95.0298 17.488 95.0298 16.704V9.13H96.3038V16.606C96.3038 16.9233 96.3458 17.194 96.4298 17.418C96.5231 17.6327 96.6538 17.7913 96.8218 17.894C96.9991 17.9967 97.2185 18.048 97.4798 18.048C97.5825 18.048 97.6851 18.0433 97.7878 18.034C97.8998 18.0247 98.0025 18.006 98.0958 17.978L98.0678 19.014C97.9185 19.0513 97.7691 19.0793 97.6198 19.098C97.4798 19.1167 97.3398 19.126 97.1998 19.126ZM102.07 19.126C101.398 19.126 100.815 18.9813 100.32 18.692C99.8257 18.4027 99.4431 17.992 99.1724 17.46C98.9017 16.928 98.7664 16.3027 98.7664 15.584C98.7664 14.8653 98.9017 14.2447 99.1724 13.722C99.4431 13.19 99.8257 12.7793 100.32 12.49C100.815 12.2007 101.398 12.056 102.07 12.056C102.742 12.056 103.326 12.2007 103.82 12.49C104.315 12.7793 104.698 13.19 104.968 13.722C105.239 14.2447 105.374 14.8653 105.374 15.584C105.374 16.3027 105.239 16.928 104.968 17.46C104.698 17.992 104.315 18.4027 103.82 18.692C103.326 18.9813 102.742 19.126 102.07 19.126ZM102.07 18.118C102.686 18.118 103.176 17.9033 103.54 17.474C103.904 17.0353 104.086 16.4053 104.086 15.584C104.086 14.7627 103.904 14.1373 103.54 13.708C103.176 13.2787 102.686 13.064 102.07 13.064C101.464 13.064 100.974 13.2787 100.6 13.708C100.236 14.1373 100.054 14.7627 100.054 15.584C100.054 16.4053 100.236 17.0353 100.6 17.474C100.974 17.9033 101.464 18.118 102.07 18.118ZM109.176 19.126C108.71 19.126 108.285 19.0327 107.902 18.846C107.529 18.6593 107.235 18.4073 107.02 18.09C106.815 17.7727 106.712 17.418 106.712 17.026C106.712 16.522 106.838 16.1253 107.09 15.836C107.342 15.5467 107.767 15.3413 108.364 15.22C108.962 15.0893 109.764 15.024 110.772 15.024H111.43V15.836H110.8C110.259 15.836 109.806 15.8547 109.442 15.892C109.078 15.9293 108.789 15.99 108.574 16.074C108.36 16.158 108.206 16.2747 108.112 16.424C108.019 16.564 107.972 16.7413 107.972 16.956C107.972 17.32 108.098 17.6187 108.35 17.852C108.612 18.0853 108.966 18.202 109.414 18.202C109.769 18.202 110.082 18.118 110.352 17.95C110.623 17.7727 110.838 17.5393 110.996 17.25C111.155 16.9513 111.234 16.6107 111.234 16.228V14.618C111.234 14.0673 111.122 13.6707 110.898 13.428C110.674 13.176 110.296 13.05 109.764 13.05C109.372 13.05 108.98 13.1107 108.588 13.232C108.206 13.3533 107.809 13.54 107.398 13.792L106.992 12.882C107.235 12.714 107.51 12.5693 107.818 12.448C108.136 12.3173 108.462 12.2193 108.798 12.154C109.144 12.0887 109.475 12.056 109.792 12.056C110.399 12.056 110.898 12.154 111.29 12.35C111.682 12.5367 111.976 12.8307 112.172 13.232C112.368 13.624 112.466 14.128 112.466 14.744V19H111.262V17.446H111.388C111.314 17.7913 111.174 18.09 110.968 18.342C110.763 18.594 110.506 18.79 110.198 18.93C109.9 19.0607 109.559 19.126 109.176 19.126ZM117.075 19.126C116.478 19.126 115.951 18.986 115.493 18.706C115.045 18.4167 114.695 18.006 114.443 17.474C114.191 16.9327 114.065 16.3027 114.065 15.584C114.065 14.856 114.187 14.2307 114.429 13.708C114.681 13.176 115.031 12.77 115.479 12.49C115.937 12.2007 116.469 12.056 117.075 12.056C117.682 12.056 118.205 12.21 118.643 12.518C119.082 12.8167 119.376 13.218 119.525 13.722H119.371V9.13H120.645V19H119.385V17.418H119.525C119.385 17.9407 119.091 18.356 118.643 18.664C118.205 18.972 117.682 19.126 117.075 19.126ZM117.369 18.118C117.985 18.118 118.475 17.9033 118.839 17.474C119.203 17.0353 119.385 16.4053 119.385 15.584C119.385 14.7627 119.203 14.1373 118.839 13.708C118.475 13.2787 117.985 13.064 117.369 13.064C116.763 13.064 116.273 13.2787 115.899 13.708C115.535 14.1373 115.353 14.7627 115.353 15.584C115.353 16.4053 115.535 17.0353 115.899 17.474C116.273 17.9033 116.763 18.118 117.369 18.118ZM129.223 19.126C128.551 19.126 127.967 18.9813 127.473 18.692C126.978 18.4027 126.595 17.992 126.325 17.46C126.054 16.928 125.919 16.3027 125.919 15.584C125.919 14.8653 126.054 14.2447 126.325 13.722C126.595 13.19 126.978 12.7793 127.473 12.49C127.967 12.2007 128.551 12.056 129.223 12.056C129.895 12.056 130.478 12.2007 130.973 12.49C131.467 12.7793 131.85 13.19 132.121 13.722C132.391 14.2447 132.527 14.8653 132.527 15.584C132.527 16.3027 132.391 16.928 132.121 17.46C131.85 17.992 131.467 18.4027 130.973 18.692C130.478 18.9813 129.895 19.126 129.223 19.126ZM129.223 18.118C129.839 18.118 130.329 17.9033 130.693 17.474C131.057 17.0353 131.239 16.4053 131.239 15.584C131.239 14.7627 131.057 14.1373 130.693 13.708C130.329 13.2787 129.839 13.064 129.223 13.064C128.616 13.064 128.126 13.2787 127.753 13.708C127.389 14.1373 127.207 14.7627 127.207 15.584C127.207 16.4053 127.389 17.0353 127.753 17.474C128.126 17.9033 128.616 18.118 129.223 18.118ZM134.159 19V12.182H135.405V13.666H135.251C135.447 13.134 135.764 12.7327 136.203 12.462C136.651 12.1913 137.159 12.056 137.729 12.056C138.279 12.056 138.732 12.154 139.087 12.35C139.441 12.546 139.707 12.8493 139.885 13.26C140.062 13.6613 140.151 14.1653 140.151 14.772V19H138.877V14.842C138.877 14.4407 138.825 14.1093 138.723 13.848C138.62 13.5867 138.457 13.3953 138.233 13.274C138.018 13.1527 137.743 13.092 137.407 13.092C137.015 13.092 136.669 13.176 136.371 13.344C136.072 13.512 135.839 13.75 135.671 14.058C135.512 14.366 135.433 14.7253 135.433 15.136V19H134.159ZM148.635 19.126C147.804 19.126 147.184 18.9113 146.773 18.482C146.362 18.0433 146.157 17.418 146.157 16.606V13.162H144.827V12.182H146.157V10.11H147.431V12.182H149.573V13.162H147.431V16.494C147.431 17.0073 147.538 17.3947 147.753 17.656C147.968 17.9173 148.322 18.048 148.817 18.048C148.966 18.048 149.111 18.034 149.251 18.006C149.4 17.9687 149.54 17.9313 149.671 17.894L149.881 18.846C149.75 18.93 149.564 18.9953 149.321 19.042C149.088 19.098 148.859 19.126 148.635 19.126ZM150.825 19V9.13H152.099V13.666H151.917C152.113 13.134 152.43 12.7327 152.869 12.462C153.317 12.1913 153.825 12.056 154.395 12.056C154.945 12.056 155.398 12.1587 155.753 12.364C156.107 12.56 156.373 12.8587 156.551 13.26C156.728 13.6613 156.817 14.1653 156.817 14.772V19H155.543V14.842C155.543 14.4407 155.491 14.1093 155.389 13.848C155.286 13.5867 155.123 13.3953 154.899 13.274C154.684 13.1527 154.409 13.092 154.073 13.092C153.681 13.092 153.335 13.176 153.037 13.344C152.738 13.512 152.505 13.75 152.337 14.058C152.178 14.366 152.099 14.7253 152.099 15.136V19H150.825ZM161.986 19.126C161.249 19.126 160.614 18.986 160.082 18.706C159.56 18.4167 159.154 18.0107 158.864 17.488C158.575 16.956 158.43 16.3307 158.43 15.612C158.43 14.9027 158.57 14.282 158.85 13.75C159.14 13.218 159.532 12.8027 160.026 12.504C160.53 12.2053 161.104 12.056 161.748 12.056C162.374 12.056 162.906 12.1913 163.344 12.462C163.792 12.7327 164.133 13.12 164.366 13.624C164.609 14.1187 164.73 14.716 164.73 15.416V15.878H159.424V15.066H163.89L163.652 15.262C163.652 14.534 163.494 13.974 163.176 13.582C162.859 13.1807 162.392 12.98 161.776 12.98C161.328 12.98 160.946 13.0873 160.628 13.302C160.311 13.5073 160.068 13.8013 159.9 14.184C159.732 14.5573 159.648 14.9913 159.648 15.486V15.57C159.648 16.13 159.737 16.6013 159.914 16.984C160.101 17.3573 160.367 17.642 160.712 17.838C161.058 18.0247 161.482 18.118 161.986 18.118C162.388 18.118 162.775 18.0573 163.148 17.936C163.531 17.8053 163.89 17.6047 164.226 17.334L164.618 18.216C164.31 18.496 163.914 18.72 163.428 18.888C162.952 19.0467 162.472 19.126 161.986 19.126Z" fill="white"/>
<path d="M49.026 45L57.32 26.67H60.05L68.344 45H64.964L62.754 39.852L64.158 40.762H53.186L54.59 39.852L52.406 45H49.026ZM58.646 30.284L55.006 38.942L54.33 38.11H63.014L62.364 38.942L58.698 30.284H58.646ZM70.0377 49.68V32.286H73.2097V34.964H72.9497C73.2097 34.08 73.7383 33.3693 74.5357 32.832C75.3503 32.2947 76.295 32.026 77.3697 32.026C78.479 32.026 79.4497 32.2947 80.2817 32.832C81.131 33.3693 81.7897 34.132 82.2577 35.12C82.7257 36.0907 82.9597 37.2607 82.9597 38.63C82.9597 39.982 82.7257 41.1607 82.2577 42.166C81.7897 43.154 81.1397 43.9167 80.3077 44.454C79.4757 44.9913 78.4963 45.26 77.3697 45.26C76.3123 45.26 75.385 45 74.5877 44.48C73.7903 43.9427 73.253 43.2493 72.9757 42.4H73.2877V49.68H70.0377ZM76.4597 42.79C77.4303 42.79 78.2103 42.4433 78.7997 41.75C79.389 41.0393 79.6837 39.9993 79.6837 38.63C79.6837 37.2433 79.389 36.212 78.7997 35.536C78.2103 34.8427 77.4303 34.496 76.4597 34.496C75.489 34.496 74.709 34.8427 74.1197 35.536C73.5303 36.212 73.2357 37.2433 73.2357 38.63C73.2357 39.9993 73.5303 41.0393 74.1197 41.75C74.709 42.4433 75.489 42.79 76.4597 42.79ZM85.6275 49.68V32.286H88.7995V34.964H88.5395C88.7995 34.08 89.3282 33.3693 90.1255 32.832C90.9402 32.2947 91.8848 32.026 92.9595 32.026C94.0688 32.026 95.0395 32.2947 95.8715 32.832C96.7208 33.3693 97.3795 34.132 97.8475 35.12C98.3155 36.0907 98.5495 37.2607 98.5495 38.63C98.5495 39.982 98.3155 41.1607 97.8475 42.166C97.3795 43.154 96.7295 43.9167 95.8975 44.454C95.0655 44.9913 94.0862 45.26 92.9595 45.26C91.9022 45.26 90.9748 45 90.1775 44.48C89.3802 43.9427 88.8428 43.2493 88.5655 42.4H88.8775V49.68H85.6275ZM92.0495 42.79C93.0202 42.79 93.8002 42.4433 94.3895 41.75C94.9788 41.0393 95.2735 39.9993 95.2735 38.63C95.2735 37.2433 94.9788 36.212 94.3895 35.536C93.8002 34.8427 93.0202 34.496 92.0495 34.496C91.0788 34.496 90.2988 34.8427 89.7095 35.536C89.1202 36.212 88.8255 37.2433 88.8255 38.63C88.8255 39.9993 89.1202 41.0393 89.7095 41.75C90.2988 42.4433 91.0788 42.79 92.0495 42.79ZM114.855 45.26C113.902 45.26 112.983 45.1733 112.099 45C111.232 44.844 110.426 44.61 109.681 44.298C108.953 43.986 108.303 43.6133 107.731 43.18L108.745 40.554C109.317 40.9527 109.915 41.2993 110.539 41.594C111.18 41.8713 111.856 42.088 112.567 42.244C113.295 42.3827 114.058 42.452 114.855 42.452C116.224 42.452 117.221 42.2267 117.845 41.776C118.469 41.308 118.781 40.71 118.781 39.982C118.781 39.5833 118.686 39.2453 118.495 38.968C118.304 38.6733 117.992 38.422 117.559 38.214C117.126 38.006 116.554 37.8327 115.843 37.694L112.983 37.096C111.336 36.7493 110.106 36.1687 109.291 35.354C108.494 34.522 108.095 33.43 108.095 32.078C108.095 30.934 108.398 29.9373 109.005 29.088C109.612 28.2387 110.452 27.58 111.527 27.112C112.602 26.644 113.841 26.41 115.245 26.41C116.077 26.41 116.874 26.4967 117.637 26.67C118.417 26.826 119.128 27.0687 119.769 27.398C120.428 27.71 121 28.0913 121.485 28.542L120.471 31.038C119.743 30.4313 118.946 29.9807 118.079 29.686C117.212 29.374 116.259 29.218 115.219 29.218C114.422 29.218 113.737 29.3307 113.165 29.556C112.593 29.7813 112.151 30.102 111.839 30.518C111.544 30.9167 111.397 31.3933 111.397 31.948C111.397 32.572 111.605 33.0747 112.021 33.456C112.437 33.82 113.148 34.106 114.153 34.314L116.987 34.912C118.703 35.276 119.977 35.848 120.809 36.628C121.658 37.408 122.083 38.448 122.083 39.748C122.083 40.84 121.788 41.802 121.199 42.634C120.61 43.466 119.769 44.116 118.677 44.584C117.602 45.0347 116.328 45.26 114.855 45.26ZM130.325 45.26C128.626 45.26 127.361 44.8353 126.529 43.986C125.697 43.1367 125.281 41.8973 125.281 40.268V34.73H122.837V32.286H125.281V28.49H128.531V32.286H132.379V34.73H128.531V40.086C128.531 40.918 128.713 41.542 129.077 41.958C129.441 42.374 130.03 42.582 130.845 42.582C131.087 42.582 131.339 42.556 131.599 42.504C131.859 42.4347 132.127 42.3653 132.405 42.296L132.899 44.688C132.587 44.8613 132.188 45 131.703 45.104C131.235 45.208 130.775 45.26 130.325 45.26ZM140.15 45.26C138.833 45.26 137.689 44.9913 136.718 44.454C135.747 43.9167 134.993 43.154 134.456 42.166C133.919 41.1607 133.65 39.982 133.65 38.63C133.65 37.278 133.919 36.108 134.456 35.12C134.993 34.132 135.747 33.3693 136.718 32.832C137.689 32.2947 138.833 32.026 140.15 32.026C141.467 32.026 142.611 32.2947 143.582 32.832C144.553 33.3693 145.307 34.132 145.844 35.12C146.381 36.108 146.65 37.278 146.65 38.63C146.65 39.982 146.381 41.1607 145.844 42.166C145.307 43.154 144.553 43.9167 143.582 44.454C142.611 44.9913 141.467 45.26 140.15 45.26ZM140.15 42.79C141.121 42.79 141.901 42.4433 142.49 41.75C143.079 41.0393 143.374 39.9993 143.374 38.63C143.374 37.2433 143.079 36.212 142.49 35.536C141.901 34.8427 141.121 34.496 140.15 34.496C139.179 34.496 138.399 34.8427 137.81 35.536C137.221 36.212 136.926 37.2433 136.926 38.63C136.926 39.9993 137.221 41.0393 137.81 41.75C138.399 42.4433 139.179 42.79 140.15 42.79ZM149.333 45V32.286H152.505V35.354H152.245C152.487 34.314 152.964 33.5253 153.675 32.988C154.385 32.4333 155.33 32.1127 156.509 32.026L157.497 31.948L157.705 34.704L155.833 34.886C154.775 34.99 153.978 35.3193 153.441 35.874C152.903 36.4113 152.635 37.174 152.635 38.162V45H149.333ZM165.577 45.26C164.138 45.26 162.899 44.9913 161.859 44.454C160.819 43.9167 160.013 43.154 159.441 42.166C158.886 41.178 158.609 40.008 158.609 38.656C158.609 37.3387 158.878 36.186 159.415 35.198C159.97 34.21 160.724 33.4387 161.677 32.884C162.648 32.312 163.748 32.026 164.979 32.026C166.192 32.026 167.232 32.286 168.099 32.806C168.966 33.326 169.633 34.0627 170.101 35.016C170.586 35.9693 170.829 37.1047 170.829 38.422V39.384H161.235V37.512H168.541L168.125 37.902C168.125 36.7233 167.865 35.822 167.345 35.198C166.825 34.5567 166.08 34.236 165.109 34.236C164.381 34.236 163.757 34.4093 163.237 34.756C162.734 35.0853 162.344 35.562 162.067 36.186C161.807 36.7927 161.677 37.5207 161.677 38.37V38.552C161.677 39.5053 161.824 40.294 162.119 40.918C162.414 41.542 162.856 42.01 163.445 42.322C164.034 42.634 164.762 42.79 165.629 42.79C166.34 42.79 167.05 42.686 167.761 42.478C168.472 42.2527 169.122 41.906 169.711 41.438L170.621 43.622C170.014 44.1247 169.252 44.5233 168.333 44.818C167.414 45.1127 166.496 45.26 165.577 45.26Z" fill="white"/>
</svg>
