<svg width="20" height="20" viewBox="0 0 20 20" fill="none" xmlns="http://www.w3.org/2000/svg">
<g clip-path="url(#clip0_399_728)">
<path d="M9.99274 20C4.48003 19.9855 -0.0145102 15.5055 3.52052e-05 9.99274C3.52052e-05 4.48003 4.49457 -0.0145102 10.0073 3.52052e-05C15.5346 0.0145806 20 4.49457 20 10.0073C19.9855 15.5346 15.5055 20 9.99274 20ZM5.16366 10.0509C5.16366 10.3709 5.29457 10.6182 5.51275 10.8364C6.28366 11.6073 7.05457 12.3927 7.84002 13.1636C8.42184 13.7455 9.00366 13.76 9.58547 13.1782C11.2 11.5637 12.8146 9.94911 14.4291 8.33457C14.4873 8.27638 14.5455 8.2182 14.6036 8.16002C15.0836 7.56366 14.8073 6.66184 14.0655 6.45821C13.6291 6.34184 13.2655 6.47275 12.9455 6.79275C11.5782 8.14548 10.2109 9.4982 8.8582 10.8655C8.74184 10.9818 8.68366 10.9818 8.56729 10.8655C8.04366 10.3273 7.52002 9.80365 6.98184 9.28002C6.63275 8.94547 6.22548 8.87275 5.80366 9.06184C5.38184 9.25093 5.17821 9.58547 5.16366 10.0509Z" fill="#F5951F"/>
<path d="M5.16382 10.0525C5.17836 9.5871 5.382 9.25255 5.80382 9.06346C6.24018 8.87437 6.64745 8.9471 6.982 9.28164C7.52018 9.80528 8.04381 10.3435 8.56745 10.8816C8.68381 10.998 8.74199 10.998 8.85836 10.8816C10.2111 9.51437 11.5784 8.16164 12.9456 6.79437C13.2656 6.47437 13.6293 6.34347 14.0656 6.45983C14.8074 6.66347 15.0838 7.56528 14.6038 8.16164C14.5456 8.21983 14.4874 8.27801 14.4293 8.33619C12.8147 9.95073 11.2002 11.5653 9.58563 13.1798C9.00381 13.7616 8.42199 13.7471 7.84018 13.1653C7.05472 12.3944 6.28382 11.6089 5.51291 10.838C5.29473 10.6198 5.16382 10.3725 5.16382 10.0525Z" fill="white"/>
</g>
<defs>
<clipPath id="clip0_399_728">
<rect width="20" height="20" fill="white"/>
</clipPath>
</defs>
</svg>
